<svg width="135" height="41" viewBox="0 0 135 41" fill="none" xmlns="http://www.w3.org/2000/svg">
<path d="M0 5.27148C0 2.51006 2.23858 0.271484 5 0.271484H130C132.761 0.271484 135 2.51006 135 5.27148V35.2715C135 38.0329 132.761 40.2715 130 40.2715H5C2.23857 40.2715 0 38.0329 0 35.2715V5.27148Z" fill="black"/>
<path d="M68.136 22.0224C65.784 22.0224 63.867 23.8114 63.867 26.2754C63.867 28.7244 65.784 30.5284 68.136 30.5284C70.489 30.5284 72.406 28.7244 72.406 26.2754C72.405 23.8114 70.488 22.0224 68.136 22.0224ZM68.136 28.8544C66.847 28.8544 65.736 27.7914 65.736 26.2764C65.736 24.7454 66.848 23.6984 68.136 23.6984C69.425 23.6984 70.536 24.7454 70.536 26.2764C70.536 27.7904 69.425 28.8544 68.136 28.8544ZM58.822 22.0224C56.47 22.0224 54.553 23.8114 54.553 26.2754C54.553 28.7244 56.47 30.5284 58.822 30.5284C61.175 30.5284 63.092 28.7244 63.092 26.2754C63.092 23.8114 61.175 22.0224 58.822 22.0224ZM58.822 28.8544C57.533 28.8544 56.422 27.7914 56.422 26.2764C56.422 24.7454 57.534 23.6984 58.822 23.6984C60.111 23.6984 61.222 24.7454 61.222 26.2764C61.223 27.7904 60.111 28.8544 58.822 28.8544ZM47.744 23.3284V25.1324H52.062C51.933 26.1474 51.595 26.8884 51.079 27.4034C50.451 28.0314 49.468 28.7244 47.744 28.7244C45.086 28.7244 43.008 26.5814 43.008 23.9234C43.008 21.2654 45.086 19.1224 47.744 19.1224C49.178 19.1224 50.225 19.6864 50.998 20.4114L52.271 19.1384C51.191 18.1074 49.758 17.3184 47.744 17.3184C44.103 17.3184 41.042 20.2824 41.042 23.9234C41.042 27.5644 44.103 30.5284 47.744 30.5284C49.709 30.5284 51.192 29.8834 52.351 28.6754C53.543 27.4834 53.914 25.8074 53.914 24.4544C53.914 24.0364 53.882 23.6494 53.817 23.3274H47.744V23.3284ZM93.052 24.7294C92.698 23.7794 91.618 22.0224 89.411 22.0224C87.22 22.0224 85.399 23.7464 85.399 26.2754C85.399 28.6594 87.204 30.5284 89.62 30.5284C91.569 30.5284 92.697 29.3364 93.165 28.6434L91.715 27.6764C91.232 28.3854 90.571 28.8524 89.62 28.8524C88.67 28.8524 87.993 28.4174 87.558 27.5634L93.245 25.2114L93.052 24.7294ZM87.252 26.1474C87.204 24.5034 88.525 23.6664 89.476 23.6664C90.217 23.6664 90.845 24.0374 91.055 24.5684L87.252 26.1474ZM82.629 30.2714H84.497V17.7704H82.629V30.2714ZM79.567 22.9734H79.503C79.084 22.4734 78.278 22.0224 77.264 22.0224C75.137 22.0224 73.188 23.8914 73.188 26.2924C73.188 28.6764 75.137 30.5294 77.264 30.5294C78.279 30.5294 79.084 30.0784 79.503 29.5634H79.567V30.1754C79.567 31.8024 78.697 32.6724 77.296 32.6724C76.152 32.6724 75.443 31.8514 75.153 31.1584L73.526 31.8354C73.993 32.9624 75.233 34.3484 77.296 34.3484C79.487 34.3484 81.34 33.0594 81.34 29.9174V22.2814H79.568V22.9734H79.567ZM77.425 28.8544C76.136 28.8544 75.057 27.7744 75.057 26.2924C75.057 24.7934 76.136 23.6984 77.425 23.6984C78.697 23.6984 79.696 24.7934 79.696 26.2924C79.696 27.7744 78.697 28.8544 77.425 28.8544ZM101.806 17.7704H97.335V30.2714H99.2V25.5354H101.805C103.873 25.5354 105.907 24.0384 105.907 21.6534C105.907 19.2684 103.874 17.7704 101.806 17.7704ZM101.854 23.7954H99.2V19.5104H101.854C103.249 19.5104 104.041 20.6654 104.041 21.6534C104.041 22.6214 103.249 23.7954 101.854 23.7954ZM113.386 22.0004C112.035 22.0004 110.636 22.5954 110.057 23.9144L111.713 24.6054C112.067 23.9144 112.727 23.6884 113.418 23.6884C114.383 23.6884 115.364 24.2674 115.38 25.2964V25.4254C115.042 25.2324 114.318 24.9434 113.434 24.9434C111.649 24.9434 109.831 25.9244 109.831 27.7574C109.831 29.4304 111.295 30.5074 112.935 30.5074C114.189 30.5074 114.881 29.9444 115.315 29.2844H115.379V30.2494H117.181V25.4564C117.182 23.2384 115.524 22.0004 113.386 22.0004ZM113.16 28.8514C112.55 28.8514 111.697 28.5454 111.697 27.7894C111.697 26.8244 112.759 26.4544 113.676 26.4544C114.495 26.4544 114.882 26.6314 115.38 26.8724C115.235 28.0314 114.238 28.8514 113.16 28.8514ZM123.743 22.2734L121.604 27.6934H121.54L119.32 22.2734H117.31L120.639 29.8484L118.741 34.0624H120.687L125.818 22.2734H123.743ZM106.937 30.2714H108.802V17.7704H106.937V30.2714Z" fill="white"/>
<path d="M47.418 10.5147C47.418 11.3527 47.1701 12.0197 46.673 12.5177C46.109 13.1097 45.3731 13.4057 44.4691 13.4057C43.6031 13.4057 42.8661 13.1057 42.2611 12.5057C41.6551 11.9047 41.3521 11.1607 41.3521 10.2727C41.3521 9.38367 41.6551 8.63967 42.2611 8.03967C42.8661 7.43867 43.6031 7.13867 44.4691 7.13867C44.8991 7.13867 45.3101 7.22267 45.7001 7.38967C46.0911 7.55767 46.404 7.78067 46.6381 8.05967L46.111 8.58767C45.714 8.11267 45.167 7.87567 44.468 7.87567C43.836 7.87567 43.29 8.09767 42.829 8.54167C42.368 8.98567 42.1381 9.56267 42.1381 10.2717C42.1381 10.9807 42.368 11.5577 42.829 12.0017C43.29 12.4457 43.836 12.6677 44.468 12.6677C45.138 12.6677 45.6971 12.4447 46.1441 11.9977C46.4341 11.7067 46.602 11.3017 46.647 10.7827H44.468V10.0617H47.375C47.405 10.2187 47.418 10.3697 47.418 10.5147Z" fill="white"/>
<path d="M52.0281 8.00873H49.2961V9.91073H51.7601V10.6317H49.2961V12.5337H52.0281V13.2717H48.5251V7.27173H52.0281V8.00873Z" fill="white"/>
<path d="M55.279 13.2717H54.508V8.00873H52.832V7.27173H56.955V8.00873H55.279V13.2717Z" fill="white"/>
<path d="M59.938 13.2717V7.27173H60.709V13.2717H59.938Z" fill="white"/>
<path d="M64.1281 13.2717H63.3572V8.00873H61.6812V7.27173H65.8042V8.00873H64.1281V13.2717Z" fill="white"/>
<path d="M73.6089 12.4967C73.0189 13.1027 72.2859 13.4057 71.4089 13.4057C70.5319 13.4057 69.7989 13.1027 69.2099 12.4967C68.6199 11.8907 68.3259 11.1487 68.3259 10.2717C68.3259 9.39472 68.6199 8.65272 69.2099 8.04672C69.7989 7.44072 70.5319 7.13672 71.4089 7.13672C72.2809 7.13672 73.0129 7.44172 73.6049 8.05072C74.1969 8.65972 74.4929 9.39972 74.4929 10.2717C74.4929 11.1487 74.1979 11.8907 73.6089 12.4967ZM69.7789 11.9937C70.2229 12.4437 70.7659 12.6677 71.4089 12.6677C72.0519 12.6677 72.5959 12.4427 73.0389 11.9937C73.4829 11.5437 73.7059 10.9697 73.7059 10.2717C73.7059 9.57372 73.4829 8.99972 73.0389 8.54972C72.5959 8.09972 72.0519 7.87572 71.4089 7.87572C70.7659 7.87572 70.2229 8.10072 69.7789 8.54972C69.3359 8.99972 69.1129 9.57372 69.1129 10.2717C69.1129 10.9697 69.3359 11.5437 69.7789 11.9937Z" fill="white"/>
<path d="M75.5749 13.2717V7.27173H76.513L79.429 11.9387H79.4619L79.429 10.7827V7.27173H80.1999V13.2717H79.3949L76.344 8.37773H76.3109L76.344 9.53373V13.2717H75.5749Z" fill="white"/>
<path d="M47.418 10.5147C47.418 11.3527 47.1701 12.0197 46.673 12.5177C46.109 13.1097 45.3731 13.4057 44.4691 13.4057C43.6031 13.4057 42.8661 13.1057 42.2611 12.5057C41.6551 11.9047 41.3521 11.1607 41.3521 10.2727C41.3521 9.38367 41.6551 8.63967 42.2611 8.03967C42.8661 7.43867 43.6031 7.13867 44.4691 7.13867C44.8991 7.13867 45.3101 7.22267 45.7001 7.38967C46.0911 7.55767 46.404 7.78067 46.6381 8.05967L46.111 8.58767C45.714 8.11267 45.167 7.87567 44.468 7.87567C43.836 7.87567 43.29 8.09767 42.829 8.54167C42.368 8.98567 42.1381 9.56267 42.1381 10.2717C42.1381 10.9807 42.368 11.5577 42.829 12.0017C43.29 12.4457 43.836 12.6677 44.468 12.6677C45.138 12.6677 45.6971 12.4447 46.1441 11.9977C46.4341 11.7067 46.602 11.3017 46.647 10.7827H44.468V10.0617H47.375C47.405 10.2187 47.418 10.3697 47.418 10.5147Z" stroke="white" stroke-width="0.2" stroke-miterlimit="10"/>
<path d="M52.0281 8.00873H49.2961V9.91073H51.7601V10.6317H49.2961V12.5337H52.0281V13.2717H48.5251V7.27173H52.0281V8.00873Z" stroke="white" stroke-width="0.2" stroke-miterlimit="10"/>
<path d="M55.279 13.2717H54.508V8.00873H52.832V7.27173H56.955V8.00873H55.279V13.2717Z" stroke="white" stroke-width="0.2" stroke-miterlimit="10"/>
<path d="M59.938 13.2717V7.27173H60.709V13.2717H59.938Z" stroke="white" stroke-width="0.2" stroke-miterlimit="10"/>
<path d="M64.1281 13.2717H63.3572V8.00873H61.6812V7.27173H65.8042V8.00873H64.1281V13.2717Z" stroke="white" stroke-width="0.2" stroke-miterlimit="10"/>
<path d="M73.6089 12.4967C73.0189 13.1027 72.2859 13.4057 71.4089 13.4057C70.5319 13.4057 69.7989 13.1027 69.2099 12.4967C68.6199 11.8907 68.3259 11.1487 68.3259 10.2717C68.3259 9.39472 68.6199 8.65272 69.2099 8.04672C69.7989 7.44072 70.5319 7.13672 71.4089 7.13672C72.2809 7.13672 73.0129 7.44172 73.6049 8.05072C74.1969 8.65972 74.4929 9.39972 74.4929 10.2717C74.4929 11.1487 74.1979 11.8907 73.6089 12.4967ZM69.7789 11.9937C70.2229 12.4437 70.7659 12.6677 71.4089 12.6677C72.0519 12.6677 72.5959 12.4427 73.0389 11.9937C73.4829 11.5437 73.7059 10.9697 73.7059 10.2717C73.7059 9.57372 73.4829 8.99972 73.0389 8.54972C72.5959 8.09972 72.0519 7.87572 71.4089 7.87572C70.7659 7.87572 70.2229 8.10072 69.7789 8.54972C69.3359 8.99972 69.1129 9.57372 69.1129 10.2717C69.1129 10.9697 69.3359 11.5437 69.7789 11.9937Z" stroke="white" stroke-width="0.2" stroke-miterlimit="10"/>
<path d="M75.5749 13.2717V7.27173H76.513L79.429 11.9387H79.4619L79.429 10.7827V7.27173H80.1999V13.2717H79.3949L76.344 8.37773H76.3109L76.344 9.53373V13.2717H75.5749Z" stroke="white" stroke-width="0.2" stroke-miterlimit="10"/>
<g filter="url(#filter0_ii)">
<path d="M10.4359 7.80982C10.1449 8.11782 9.9729 8.59582 9.9729 9.21482V31.3308C9.9729 31.9508 10.1449 32.4278 10.4359 32.7358L10.5099 32.8078L22.8989 20.4188V20.2728V20.1268L10.5099 7.73682L10.4359 7.80982Z" fill="url(#paint0_linear)"/>
<path d="M27.0279 24.5496L22.8989 20.4186V20.2726V20.1266L27.0289 15.9966L27.1219 16.0496L32.0149 18.8296C33.4119 19.6236 33.4119 20.9226 32.0149 21.7176L27.1219 24.4976L27.0279 24.5496Z" fill="url(#paint1_linear)"/>
<g filter="url(#filter1_i)">
<path d="M27.1218 24.4965L22.8978 20.2725L10.4358 32.7355C10.8958 33.2235 11.6568 33.2835 12.5138 32.7975L27.1218 24.4965Z" fill="url(#paint2_linear)"/>
</g>
<path d="M27.1218 16.0487L12.5138 7.74867C11.6568 7.26167 10.8958 7.32267 10.4358 7.81067L22.8988 20.2737L27.1218 16.0487Z" fill="url(#paint3_linear)"/>
</g>
<path d="M5 1.27148H130V-0.728516H5V1.27148ZM134 5.27148V35.2715H136V5.27148H134ZM130 39.2715H5V41.2715H130V39.2715ZM1 35.2715V5.27148H-1V35.2715H1ZM5 39.2715C2.79086 39.2715 1 37.4806 1 35.2715H-1C-1 38.5852 1.68629 41.2715 5 41.2715V39.2715ZM134 35.2715C134 37.4806 132.209 39.2715 130 39.2715V41.2715C133.314 41.2715 136 38.5852 136 35.2715H134ZM130 1.27148C132.209 1.27148 134 3.06234 134 5.27148H136C136 1.95778 133.314 -0.728516 130 -0.728516V1.27148ZM5 -0.728516C1.68629 -0.728516 -1 1.95778 -1 5.27148H1C1 3.06235 2.79086 1.27148 5 1.27148V-0.728516Z" fill="#A6A6A6"/>
<defs>
<filter id="filter0_ii" x="9.9729" y="7.4126" width="23.0898" height="25.7205" filterUnits="userSpaceOnUse" color-interpolation-filters="sRGB">
<feFlood flood-opacity="0" result="BackgroundImageFix"/>
<feBlend mode="normal" in="SourceGraphic" in2="BackgroundImageFix" result="shape"/>
<feColorMatrix in="SourceAlpha" type="matrix" values="0 0 0 0 0 0 0 0 0 0 0 0 0 0 0 0 0 0 127 0" result="hardAlpha"/>
<feOffset dy="-0.15"/>
<feComposite in2="hardAlpha" operator="arithmetic" k2="-1" k3="1"/>
<feColorMatrix type="matrix" values="0 0 0 0 0 0 0 0 0 0 0 0 0 0 0 0 0 0 0.12 0"/>
<feBlend mode="normal" in2="shape" result="effect1_innerShadow"/>
<feColorMatrix in="SourceAlpha" type="matrix" values="0 0 0 0 0 0 0 0 0 0 0 0 0 0 0 0 0 0 127 0" result="hardAlpha"/>
<feOffset dy="0.15"/>
<feComposite in2="hardAlpha" operator="arithmetic" k2="-1" k3="1"/>
<feColorMatrix type="matrix" values="0 0 0 0 1 0 0 0 0 1 0 0 0 0 1 0 0 0 0.25 0"/>
<feBlend mode="normal" in2="effect1_innerShadow" result="effect2_innerShadow"/>
</filter>
<filter id="filter1_i" x="10.4358" y="20.2725" width="16.686" height="12.8607" filterUnits="userSpaceOnUse" color-interpolation-filters="sRGB">
<feFlood flood-opacity="0" result="BackgroundImageFix"/>
<feBlend mode="normal" in="SourceGraphic" in2="BackgroundImageFix" result="shape"/>
<feColorMatrix in="SourceAlpha" type="matrix" values="0 0 0 0 0 0 0 0 0 0 0 0 0 0 0 0 0 0 127 0" result="hardAlpha"/>
<feOffset dy="-0.15"/>
<feComposite in2="hardAlpha" operator="arithmetic" k2="-1" k3="1"/>
<feColorMatrix type="matrix" values="0 0 0 0 0 0 0 0 0 0 0 0 0 0 0 0 0 0 0.08 0"/>
<feBlend mode="normal" in2="shape" result="effect1_innerShadow"/>
</filter>
<linearGradient id="paint0_linear" x1="21.8007" y1="8.98082" x2="5.0187" y2="25.7628" gradientUnits="userSpaceOnUse">
<stop stop-color="#00A0FF"/>
<stop offset="0.0066" stop-color="#00A1FF"/>
<stop offset="0.2601" stop-color="#00BEFF"/>
<stop offset="0.5122" stop-color="#00D2FF"/>
<stop offset="0.7604" stop-color="#00DFFF"/>
<stop offset="1" stop-color="#00E3FF"/>
</linearGradient>
<linearGradient id="paint1_linear" x1="33.8334" y1="20.2726" x2="9.63753" y2="20.2726" gradientUnits="userSpaceOnUse">
<stop stop-color="#FFE000"/>
<stop offset="0.4087" stop-color="#FFBD00"/>
<stop offset="0.7754" stop-color="#FFA500"/>
<stop offset="1" stop-color="#FF9C00"/>
</linearGradient>
<linearGradient id="paint2_linear" x1="24.8279" y1="22.5664" x2="2.06939" y2="45.3249" gradientUnits="userSpaceOnUse">
<stop stop-color="#FF3A44"/>
<stop offset="1" stop-color="#C31162"/>
</linearGradient>
<linearGradient id="paint3_linear" x1="7.29719" y1="0.448473" x2="17.4595" y2="10.6108" gradientUnits="userSpaceOnUse">
<stop stop-color="#32A071"/>
<stop offset="0.0685" stop-color="#2DA771"/>
<stop offset="0.4762" stop-color="#15CF74"/>
<stop offset="0.8009" stop-color="#06E775"/>
<stop offset="1" stop-color="#00F076"/>
</linearGradient>
</defs>
</svg>
