<svg width="64" height="64" viewBox="0 0 64 64" fill="none" xmlns="http://www.w3.org/2000/svg">
<rect x="23" y="8" width="18" height="18" fill="white"/>
<path d="M58.25 26.25H41.5617C40.822 26.25 40.0126 26.8323 39.7088 27.5079C39.544 27.6269 39.3645 27.6288 38.5699 27.4988C37.7752 27.3669 36.6949 27.193 35.479 27.5756C34.2559 27.9675 33.4795 28.7549 32.9155 29.3298C32.3186 29.9341 32.2014 30 32 30C31.7986 30 31.6814 29.9341 31.0845 29.3299C30.5205 28.7549 29.7441 27.9676 28.521 27.5758C27.3051 27.193 26.2249 27.367 25.4301 27.4989C24.6464 27.627 24.4596 27.6289 24.152 27.3615C23.848 26.6859 23.1779 26.25 22.4381 26.25H5.75C4.71362 26.25 3.875 27.0886 3.875 28.125V62.125C3.875 63.1614 4.71362 64 5.75 64H58.25C59.2864 64 60.125 63.1614 60.125 62.125V28.125C60.125 27.0886 59.2864 26.25 58.25 26.25Z" fill="#FF3366"/>
<path d="M52.0757 53.0494L43.1417 44.114L51.9217 37.0899C52.731 36.4416 52.8592 35.2625 52.2147 34.4531C51.5702 33.6493 50.3909 33.5138 49.5779 34.1601L32 48.2226L14.4218 34.1601C13.6162 33.5174 12.437 33.6474 11.7852 34.4531C11.1405 35.2625 11.2688 36.4416 12.078 37.0899L20.8583 44.114L11.9243 53.0494C11.1919 53.7817 11.1919 54.9684 11.9243 55.7007C12.6567 56.4331 13.8432 56.4332 14.5757 55.7007L23.8042 46.4706C30.52 51.8019 30.8063 52.1409 31.2824 52.3399C31.7949 52.5537 32.2072 52.5521 32.7157 52.3404C33.1894 52.1441 33.4985 51.7871 40.1958 46.4707L49.4243 55.7009C50.1567 56.4333 51.3432 56.4334 52.0757 55.7009C52.8082 54.9683 52.8082 53.7817 52.0757 53.0494ZM15.9499 22.0875C16.5125 23.8124 17.8624 24.4874 18.7624 24.9373C19.325 25.2374 19.6627 25.4247 19.8875 25.7249C20.075 25.9874 20.15 26.3622 20.2249 26.9625C20.4242 28.0243 20.5239 29.3802 22.0999 30.5624C23.5624 31.6125 25.025 31.35 26.0374 31.2C26.6375 31.0874 27.05 31.0499 27.3875 31.1625C27.6874 31.2374 27.9874 31.5374 28.3999 31.9499C29.1124 32.6624 30.1625 33.75 32 33.75C33.8375 33.75 34.8877 32.6624 35.6002 31.9499C36.0127 31.5374 36.3127 31.2374 36.6125 31.1625C36.9502 31.0499 37.3625 31.0874 37.9627 31.2C38.9374 31.3499 40.4375 31.6125 41.9002 30.5624C43.4424 29.4055 43.5632 28.0919 43.7752 26.9625C43.85 26.3624 43.925 25.9875 44.1125 25.6874C44.3375 25.4249 44.6752 25.2374 45.2377 24.9374C46.1377 24.4874 47.4875 23.8124 48.0127 22.1249C48.6125 20.3625 47.9 19.0125 47.45 18.1124C47.1875 17.5875 47 17.2124 47 16.875C47 16.5374 47.1875 16.1625 47.45 15.6374C47.9 14.7374 48.6125 13.3875 48.0502 11.6624C47.4875 9.93725 46.1377 9.26237 45.2377 8.81238C44.675 8.51225 44.3374 8.32487 44.1125 8.06238C43.925 7.7625 43.85 7.38737 43.7752 6.75C43.625 5.775 43.4 4.31238 41.9002 3.1875C40.4375 2.1375 38.975 2.4 37.9627 2.55C37.325 2.66237 36.95 2.69988 36.6125 2.5875C36.3127 2.51238 36.0127 2.21237 35.6002 1.79988C34.8877 1.08738 33.8375 0 32 0C30.1625 0 29.1124 1.08738 28.3999 1.79988C27.9874 2.21237 27.6874 2.51238 27.3875 2.5875C27.0499 2.69988 26.6375 2.66237 26.0374 2.55C25.0627 2.40013 23.5625 2.1375 22.0624 3.225C20.6 4.31238 20.375 5.775 20.2249 6.75C20.15 7.38737 20.075 7.76263 19.8875 8.06238C19.6625 8.32487 19.3249 8.51237 18.7624 8.81238C17.8624 9.26237 16.5125 9.93738 15.9874 11.6249C15.3875 13.3875 16.1 14.7375 16.55 15.6374C16.8125 16.1624 17 16.5374 17 16.875C17 17.2124 16.8125 17.5875 16.55 18.1124C16.1 19.0125 15.3875 20.3625 15.9499 22.0875ZM35.75 24.375C34.6999 24.375 33.875 23.5499 33.875 22.5C33.875 21.4499 34.6999 20.625 35.75 20.625C36.8002 20.625 37.625 21.4499 37.625 22.5C37.625 23.5499 36.8002 24.375 35.75 24.375ZM28.25 9.375C29.3002 9.375 30.125 10.1999 30.125 11.25C30.125 12.2999 29.3002 13.125 28.25 13.125C27.1999 13.125 26.375 12.2999 26.375 11.25C26.375 10.1999 27.1999 9.375 28.25 9.375ZM26.6752 21.4499L34.1752 10.1999C34.775 9.3375 35.9375 9.1125 36.8002 9.67488C37.6625 10.275 37.8875 11.4375 37.325 12.2999L29.825 23.5499C29.2808 24.3121 28.2653 24.6664 27.2 24.0749C26.3375 23.475 26.1125 22.3125 26.6752 21.4499Z" fill="#FFC7D5"/>
<mask id="mask0" mask-type="alpha" maskUnits="userSpaceOnUse" x="11" y="0" width="42" height="57">
<path d="M52.0757 53.0494L43.1417 44.114L51.9217 37.0899C52.731 36.4416 52.8592 35.2625 52.2147 34.4531C51.5702 33.6493 50.3909 33.5138 49.5779 34.1601L32 48.2226L14.4218 34.1601C13.6162 33.5174 12.437 33.6474 11.7852 34.4531C11.1405 35.2625 11.2688 36.4416 12.078 37.0899L20.8583 44.114L11.9243 53.0494C11.1919 53.7817 11.1919 54.9684 11.9243 55.7007C12.6567 56.4331 13.8432 56.4332 14.5757 55.7007L23.8042 46.4706C30.52 51.8019 30.8063 52.1409 31.2824 52.3399C31.7949 52.5537 32.2072 52.5521 32.7157 52.3404C33.1894 52.1441 33.4985 51.7871 40.1958 46.4707L49.4243 55.7009C50.1567 56.4333 51.3432 56.4334 52.0757 55.7009C52.8082 54.9683 52.8082 53.7817 52.0757 53.0494ZM15.9499 22.0875C16.5125 23.8124 17.8624 24.4874 18.7624 24.9373C19.325 25.2374 19.6627 25.4247 19.8875 25.7249C20.075 25.9874 20.15 26.3622 20.2249 26.9625C20.4242 28.0243 20.5239 29.3802 22.0999 30.5624C23.5624 31.6125 25.025 31.35 26.0374 31.2C26.6375 31.0874 27.05 31.0499 27.3875 31.1625C27.6874 31.2374 27.9874 31.5374 28.3999 31.9499C29.1124 32.6624 30.1625 33.75 32 33.75C33.8375 33.75 34.8877 32.6624 35.6002 31.9499C36.0127 31.5374 36.3127 31.2374 36.6125 31.1625C36.9502 31.0499 37.3625 31.0874 37.9627 31.2C38.9374 31.3499 40.4375 31.6125 41.9002 30.5624C43.4424 29.4055 43.5632 28.0919 43.7752 26.9625C43.85 26.3624 43.925 25.9875 44.1125 25.6874C44.3375 25.4249 44.6752 25.2374 45.2377 24.9374C46.1377 24.4874 47.4875 23.8124 48.0127 22.1249C48.6125 20.3625 47.9 19.0125 47.45 18.1124C47.1875 17.5875 47 17.2124 47 16.875C47 16.5374 47.1875 16.1625 47.45 15.6374C47.9 14.7374 48.6125 13.3875 48.0502 11.6624C47.4875 9.93725 46.1377 9.26237 45.2377 8.81238C44.675 8.51225 44.3374 8.32487 44.1125 8.06238C43.925 7.7625 43.85 7.38737 43.7752 6.75C43.625 5.775 43.4 4.31238 41.9002 3.1875C40.4375 2.1375 38.975 2.4 37.9627 2.55C37.325 2.66237 36.95 2.69988 36.6125 2.5875C36.3127 2.51238 36.0127 2.21237 35.6002 1.79988C34.8877 1.08738 33.8375 0 32 0C30.1625 0 29.1124 1.08738 28.3999 1.79988C27.9874 2.21237 27.6874 2.51238 27.3875 2.5875C27.0499 2.69988 26.6375 2.66237 26.0374 2.55C25.0627 2.40013 23.5625 2.1375 22.0624 3.225C20.6 4.31238 20.375 5.775 20.2249 6.75C20.15 7.38737 20.075 7.76263 19.8875 8.06238C19.6625 8.32487 19.3249 8.51237 18.7624 8.81238C17.8624 9.26237 16.5125 9.93738 15.9874 11.6249C15.3875 13.3875 16.1 14.7375 16.55 15.6374C16.8125 16.1624 17 16.5374 17 16.875C17 17.2124 16.8125 17.5875 16.55 18.1124C16.1 19.0125 15.3875 20.3625 15.9499 22.0875ZM35.75 24.375C34.6999 24.375 33.875 23.5499 33.875 22.5C33.875 21.4499 34.6999 20.625 35.75 20.625C36.8002 20.625 37.625 21.4499 37.625 22.5C37.625 23.5499 36.8002 24.375 35.75 24.375ZM28.25 9.375C29.3002 9.375 30.125 10.1999 30.125 11.25C30.125 12.2999 29.3002 13.125 28.25 13.125C27.1999 13.125 26.375 12.2999 26.375 11.25C26.375 10.1999 27.1999 9.375 28.25 9.375ZM26.6752 21.4499L34.1752 10.1999C34.775 9.3375 35.9375 9.1125 36.8002 9.67488C37.6625 10.275 37.8875 11.4375 37.325 12.2999L29.825 23.5499C29.2808 24.3121 28.2653 24.6664 27.2 24.0749C26.3375 23.475 26.1125 22.3125 26.6752 21.4499Z" fill="#FF3366"/>
</mask>
<g mask="url(#mask0)">
<path d="M8 33L32.5 34.5L54.5 31.5L58 62H8V33Z" fill="white"/>
</g>
</svg>
