<svg width="135" height="41" viewBox="0 0 135 41" fill="none" xmlns="http://www.w3.org/2000/svg">
<rect x="0.5" y="0.771484" width="134" height="39" rx="6.5" fill="#0C0D10"/>
<path d="M81.5259 19.4723V21.7634H80.0899V23.2658H81.5259V28.3708C81.5259 30.1139 82.3145 30.8112 84.2984 30.8112C84.647 30.8112 84.9791 30.7697 85.2696 30.7199V29.2341C85.0206 29.259 84.8628 29.2756 84.5889 29.2756C83.7007 29.2756 83.3106 28.8605 83.3106 27.9142V23.2658H85.2696V21.7634H83.3106V19.4723H81.5259Z" fill="white"/>
<path d="M90.3234 30.9357C92.9631 30.9357 94.5817 29.1677 94.5817 26.2375C94.5817 23.3239 92.9548 21.5475 90.3234 21.5475C87.6838 21.5475 86.0568 23.3239 86.0568 26.2375C86.0568 29.1677 87.6755 30.9357 90.3234 30.9357ZM90.3234 29.3503C88.7712 29.3503 87.8996 28.2131 87.8996 26.2375C87.8996 24.2785 88.7712 23.133 90.3234 23.133C91.8674 23.133 92.7473 24.2785 92.7473 26.2375C92.7473 28.2048 91.8674 29.3503 90.3234 29.3503Z" fill="white"/>
<path d="M95.9666 30.7614H97.7513V25.424C97.7513 24.154 98.7059 23.299 100.059 23.299C100.374 23.299 100.906 23.3571 101.055 23.4069V21.6471C100.864 21.5973 100.524 21.5724 100.258 21.5724C99.0794 21.5724 98.075 22.2199 97.8177 23.1081H97.6849V21.7219H95.9666V30.7614Z" fill="white"/>
<path d="M105.486 23.0666C106.806 23.0666 107.669 23.988 107.711 25.4074H103.145C103.245 23.9963 104.166 23.0666 105.486 23.0666ZM107.703 28.321C107.371 29.0265 106.632 29.4167 105.553 29.4167C104.125 29.4167 103.204 28.4123 103.145 26.8268V26.7272H109.529V26.1047C109.529 23.2658 108.01 21.5475 105.495 21.5475C102.946 21.5475 101.328 23.382 101.328 26.2707C101.328 29.1594 102.913 30.9357 105.503 30.9357C107.57 30.9357 109.014 29.9396 109.421 28.321H107.703Z" fill="white"/>
<path d="M69.8223 27.4232C69.96 29.643 71.8098 31.0625 74.5629 31.0625C77.5053 31.0625 79.3464 29.5741 79.3464 27.1996C79.3464 25.3326 78.2968 24.3002 75.7502 23.7065L74.3822 23.371C72.7647 22.9924 72.1109 22.4848 72.1109 21.5987C72.1109 20.4802 73.1261 19.7489 74.6489 19.7489C76.0943 19.7489 77.0923 20.463 77.273 21.6073H79.1486C79.0367 19.5166 77.1956 18.0454 74.6747 18.0454C71.9646 18.0454 70.1579 19.5166 70.1579 21.7277C70.1579 23.5517 71.1817 24.6357 73.4272 25.1605L75.0275 25.5477C76.6707 25.9348 77.3934 26.5027 77.3934 27.4491C77.3934 28.5503 76.2578 29.3504 74.7091 29.3504C73.0487 29.3504 71.8958 28.6019 71.7323 27.4232H69.8223Z" fill="white"/>
<path d="M51.335 21.5724C50.1065 21.5724 49.044 22.1867 48.4961 23.216H48.3633V21.7219H46.6451V33.7663H48.4297V29.3918H48.5708C49.044 30.3464 50.065 30.9108 51.3516 30.9108C53.6343 30.9108 55.087 29.1096 55.087 26.2375C55.087 23.3654 53.6343 21.5724 51.335 21.5724ZM50.8287 29.3088C49.3345 29.3088 48.3965 28.1301 48.3965 26.2458C48.3965 24.3532 49.3345 23.1745 50.837 23.1745C52.3477 23.1745 53.2525 24.3283 53.2525 26.2375C53.2525 28.155 52.3477 29.3088 50.8287 29.3088Z" fill="white"/>
<path d="M61.3318 21.5724C60.1033 21.5724 59.0408 22.1867 58.4929 23.216H58.3601V21.7219H56.6419V33.7663H58.4265V29.3918H58.5676C59.0408 30.3464 60.0618 30.9108 61.3484 30.9108C63.6311 30.9108 65.0838 29.1096 65.0838 26.2375C65.0838 23.3654 63.6311 21.5724 61.3318 21.5724ZM60.8255 29.3088C59.3313 29.3088 58.3933 28.1301 58.3933 26.2458C58.3933 24.3532 59.3313 23.1745 60.8338 23.1745C62.3445 23.1745 63.2493 24.3283 63.2493 26.2375C63.2493 28.155 62.3445 29.3088 60.8255 29.3088Z" fill="white"/>
<path d="M43.4431 30.7614H45.4907L41.0083 18.3465H38.9348L34.4524 30.7614H36.4312L37.5755 27.4663H42.3074L43.4431 30.7614ZM39.8726 20.6007H40.0189L41.817 25.8488H38.0659L39.8726 20.6007Z" fill="white"/>
<path d="M35.6511 8.98218V14.9712H37.8135C39.5981 14.9712 40.6316 13.8713 40.6316 11.958C40.6316 10.0737 39.5898 8.98218 37.8135 8.98218H35.6511ZM36.5808 9.82886H37.7097C38.9507 9.82886 39.6853 10.6174 39.6853 11.9705C39.6853 13.3442 38.9631 14.1245 37.7097 14.1245H36.5808V9.82886Z" fill="white"/>
<path d="M43.7967 15.0583C45.1165 15.0583 45.9258 14.1743 45.9258 12.7092C45.9258 11.2524 45.1124 10.3643 43.7967 10.3643C42.4769 10.3643 41.6634 11.2524 41.6634 12.7092C41.6634 14.1743 42.4727 15.0583 43.7967 15.0583ZM43.7967 14.2656C43.0206 14.2656 42.5848 13.697 42.5848 12.7092C42.5848 11.7297 43.0206 11.157 43.7967 11.157C44.5687 11.157 45.0086 11.7297 45.0086 12.7092C45.0086 13.6929 44.5687 14.2656 43.7967 14.2656Z" fill="white"/>
<path d="M52.818 10.4514H51.9256L51.1205 13.9004H51.0499L50.1202 10.4514H49.2652L48.3355 13.9004H48.2691L47.4598 10.4514H46.555L47.8001 14.9712H48.7174L49.6471 11.6426H49.7176L50.6515 14.9712H51.577L52.818 10.4514Z" fill="white"/>
<path d="M53.8456 14.9712H54.7379V12.3274C54.7379 11.6218 55.1571 11.1819 55.817 11.1819C56.477 11.1819 56.7924 11.543 56.7924 12.2693V14.9712H57.6847V12.0452C57.6847 10.9702 57.1286 10.3643 56.12 10.3643C55.4394 10.3643 54.9911 10.6672 54.7711 11.1694H54.7047V10.4514H53.8456V14.9712Z" fill="white"/>
<path d="M59.09 14.9712H59.9824V8.6875H59.09V14.9712Z" fill="white"/>
<path d="M63.3384 15.0583C64.6582 15.0583 65.4675 14.1743 65.4675 12.7092C65.4675 11.2524 64.6541 10.3643 63.3384 10.3643C62.0186 10.3643 61.2051 11.2524 61.2051 12.7092C61.2051 14.1743 62.0144 15.0583 63.3384 15.0583ZM63.3384 14.2656C62.5623 14.2656 62.1265 13.697 62.1265 12.7092C62.1265 11.7297 62.5623 11.157 63.3384 11.157C64.1104 11.157 64.5503 11.7297 64.5503 12.7092C64.5503 13.6929 64.1104 14.2656 63.3384 14.2656Z" fill="white"/>
<path d="M68.1263 14.2947C67.6407 14.2947 67.2879 14.0581 67.2879 13.6514C67.2879 13.2529 67.5701 13.0413 68.1927 12.9998L69.2967 12.9292V13.3069C69.2967 13.8672 68.7986 14.2947 68.1263 14.2947ZM67.898 15.0459C68.4915 15.0459 68.9854 14.7886 69.2552 14.3362H69.3257V14.9712H70.1849V11.8833C70.1849 10.9287 69.5457 10.3643 68.4126 10.3643C67.3875 10.3643 66.657 10.8623 66.5657 11.6384H67.429C67.5286 11.3188 67.8731 11.1362 68.3711 11.1362C68.9812 11.1362 69.2967 11.406 69.2967 11.8833V12.2734L68.0723 12.344C66.9974 12.4104 66.3914 12.8794 66.3914 13.6929C66.3914 14.5188 67.0264 15.0459 67.898 15.0459Z" fill="white"/>
<path d="M73.213 15.0459C73.8355 15.0459 74.3626 14.7512 74.6324 14.2573H74.703V14.9712H75.558V8.6875H74.6656V11.1694H74.5992C74.3543 10.6714 73.8314 10.3767 73.213 10.3767C72.0716 10.3767 71.337 11.2815 71.337 12.7092C71.337 14.1411 72.0633 15.0459 73.213 15.0459ZM73.4662 11.1777C74.2132 11.1777 74.6822 11.7712 74.6822 12.7134C74.6822 13.6597 74.2174 14.2449 73.4662 14.2449C72.7108 14.2449 72.2584 13.668 72.2584 12.7092C72.2584 11.7588 72.7149 11.1777 73.4662 11.1777Z" fill="white"/>
<path d="M81.3444 15.0583C82.6643 15.0583 83.4736 14.1743 83.4736 12.7092C83.4736 11.2524 82.6601 10.3643 81.3444 10.3643C80.0246 10.3643 79.2111 11.2524 79.2111 12.7092C79.2111 14.1743 80.0205 15.0583 81.3444 15.0583ZM81.3444 14.2656C80.5683 14.2656 80.1325 13.697 80.1325 12.7092C80.1325 11.7297 80.5683 11.157 81.3444 11.157C82.1164 11.157 82.5563 11.7297 82.5563 12.7092C82.5563 13.6929 82.1164 14.2656 81.3444 14.2656Z" fill="white"/>
<path d="M84.6548 14.9712H85.5471V12.3274C85.5471 11.6218 85.9663 11.1819 86.6262 11.1819C87.2861 11.1819 87.6016 11.543 87.6016 12.2693V14.9712H88.4939V12.0452C88.4939 10.9702 87.9377 10.3643 86.9292 10.3643C86.2485 10.3643 85.8003 10.6672 85.5803 11.1694H85.5139V10.4514H84.6548V14.9712Z" fill="white"/>
<path d="M92.6036 9.32666V10.4722H91.8856V11.2234H92.6036V13.7759C92.6036 14.6475 92.9979 14.9961 93.9898 14.9961C94.1642 14.9961 94.3302 14.9753 94.4754 14.9504V14.2075C94.3509 14.22 94.2721 14.2283 94.1351 14.2283C93.691 14.2283 93.4959 14.0208 93.4959 13.5476V11.2234H94.4754V10.4722H93.4959V9.32666H92.6036Z" fill="white"/>
<path d="M95.6732 14.9712H96.5656V12.3315C96.5656 11.6467 96.9723 11.186 97.7028 11.186C98.3336 11.186 98.6698 11.5513 98.6698 12.2734V14.9712H99.5622V12.0535C99.5622 10.9785 98.9687 10.3684 98.0058 10.3684C97.3251 10.3684 96.8478 10.6714 96.6278 11.1777H96.5573V8.6875H95.6732V14.9712Z" fill="white"/>
<path d="M102.781 11.1238C103.441 11.1238 103.873 11.5845 103.894 12.2942H101.611C101.661 11.5886 102.121 11.1238 102.781 11.1238ZM103.889 13.751C103.723 14.1038 103.354 14.2988 102.814 14.2988C102.101 14.2988 101.64 13.7966 101.611 13.0039V12.9541H104.802V12.6428C104.802 11.2234 104.043 10.3643 102.785 10.3643C101.511 10.3643 100.702 11.2815 100.702 12.7258C100.702 14.1702 101.495 15.0583 102.789 15.0583C103.823 15.0583 104.545 14.5603 104.748 13.751H103.889Z" fill="white"/>
<path d="M24.769 20.5725C24.7907 18.8915 25.6934 17.301 27.1256 16.4205C26.2221 15.1302 24.7088 14.3121 23.1344 14.2628C21.4552 14.0865 19.8272 15.2676 18.9715 15.2676C18.0992 15.2676 16.7817 14.2803 15.363 14.3095C13.5137 14.3692 11.7898 15.4206 10.8901 17.0374C8.95607 20.3858 10.3987 25.3068 12.2513 28.0134C13.1782 29.3388 14.2615 30.8192 15.6789 30.7667C17.066 30.7092 17.584 29.8823 19.2583 29.8823C20.9171 29.8823 21.4031 30.7667 22.8493 30.7334C24.3377 30.7092 25.2754 29.4021 26.1698 28.0642C26.8358 27.1199 27.3483 26.0761 27.6882 24.9717C25.9391 24.2319 24.771 22.4717 24.769 20.5725Z" fill="white"/>
<path d="M22.0373 12.4828C22.8489 11.5086 23.2487 10.2564 23.1518 8.99219C21.912 9.12241 20.7668 9.71497 19.9443 10.6518C19.14 11.5671 18.7214 12.7973 18.8006 14.0132C20.0408 14.026 21.2601 13.4495 22.0373 12.4828Z" fill="white"/>
<rect x="0.5" y="0.771484" width="134" height="39" rx="6.5" stroke="#A6A6A6"/>
</svg>
