<svg width="120" height="32" viewBox="0 0 120 32" fill="none" xmlns="http://www.w3.org/2000/svg">
<path d="M16.1 24.9526H13.3925V18.4632C13.3925 17.7007 13.2073 17.1203 12.8368 16.7251C12.4663 16.3299 12.0125 16.1323 11.4753 16.1323C11.0616 16.1323 10.6696 16.1972 10.2991 16.3299C9.92862 16.4596 9.57049 16.6757 9.21855 16.9783C9.32969 17.4166 9.38835 17.9137 9.38835 18.4632V24.9526H6.68082V18.4632C6.68082 17.7007 6.49559 17.1203 6.12512 16.7251C5.75465 16.3299 5.30699 16.1323 4.77907 16.1323C4.36538 16.1323 4.00108 16.2064 3.68927 16.3484C3.37437 16.4936 3.05021 16.722 2.71061 17.0369V24.9557H0V14.0793H2.70752L2.71061 14.8882C3.05021 14.564 3.44846 14.2985 3.90538 14.0978C4.36229 13.8972 4.83156 13.7953 5.30699 13.7953C5.83491 13.7953 6.36592 13.9157 6.89693 14.1534C7.43103 14.3911 7.8972 14.7369 8.29854 15.1907C8.86351 14.6906 9.43465 14.3294 10.012 14.1164C10.5893 13.9033 11.2222 13.7953 11.9137 13.7953C12.4787 13.7953 13.0159 13.8786 13.5222 14.0484C14.0316 14.2182 14.4731 14.4868 14.8497 14.8573C15.2263 15.2278 15.5289 15.697 15.7543 16.2682C15.9796 16.8393 16.0939 17.5247 16.0939 18.3274V24.9526H16.1Z" fill="white"/>
<path d="M28.023 14.0608L23.1328 26.984C22.7685 27.9504 22.2931 28.645 21.7034 29.071C21.1137 29.4971 20.4129 29.7101 19.5979 29.7101C19.4713 29.7101 19.3355 29.7008 19.1842 29.6823C19.0329 29.6607 18.8909 29.6329 18.752 29.5959L17.8474 27.0767C18.0604 27.1755 18.2796 27.2557 18.505 27.3113C18.7304 27.37 18.9434 27.3947 19.1441 27.3947C19.5701 27.3947 19.9591 27.2989 20.3111 27.1045C20.663 26.91 20.9316 26.5487 21.1199 26.0239L21.4966 24.9341L17.3041 14.0608H20.2555L22.7562 21.0565L25.1056 14.0608H28.023Z" fill="white"/>
<path d="M35.3028 24.7057C35.028 24.8816 34.7069 25.0144 34.3426 25.1008C33.9783 25.1904 33.6171 25.2336 33.2528 25.2336C32.6138 25.2336 32.0735 25.1564 31.6351 24.9989C31.1967 24.8415 30.8448 24.6007 30.5824 24.2765C30.3199 23.9493 30.1285 23.5356 30.0081 23.0354C29.8877 22.5322 29.8291 21.9456 29.8291 21.2664V16.5059H28.3997V15.2833C29.2764 14.919 29.9896 14.3788 30.536 13.6656C31.0825 12.9494 31.453 12.0232 31.6536 10.8809H32.5366V14.0577H35.2812V16.5028H32.5366V21.4486C32.5366 21.7234 32.5706 21.9487 32.6416 22.1247C32.7095 22.3007 32.8021 22.4365 32.9132 22.5384C33.0244 22.6372 33.154 22.7082 33.2991 22.7452C33.4442 22.7823 33.5986 22.8039 33.7591 22.8039C33.9722 22.8039 34.2284 22.7669 34.531 22.6897C34.8304 22.6156 35.0898 22.489 35.3028 22.313V24.7057Z" fill="white"/>
<path d="M48.1303 19.516C48.1303 20.331 47.979 21.0874 47.6796 21.782C47.377 22.4767 46.9633 23.0787 46.4385 23.5881C45.9137 24.0975 45.2931 24.4988 44.5862 24.7921C43.8792 25.0885 43.1228 25.2336 42.3201 25.2336C41.5174 25.2336 40.7641 25.0854 40.0633 24.7921C39.3594 24.4988 38.7451 24.0944 38.2202 23.5788C37.6923 23.0663 37.2786 22.4581 36.9792 21.7635C36.6766 21.0658 36.5284 20.3187 36.5284 19.516C36.5284 18.7256 36.6828 17.9816 36.9884 17.287C37.2941 16.5923 37.7139 15.9842 38.2388 15.4624C38.7667 14.9407 39.381 14.5331 40.0818 14.2399C40.7826 13.9466 41.5298 13.7984 42.3201 13.7984C43.1228 13.7984 43.8792 13.9466 44.5862 14.2399C45.2931 14.5331 45.9137 14.9345 46.4385 15.4439C46.9664 15.9533 47.3801 16.5584 47.6796 17.2592C47.979 17.9631 48.1303 18.7133 48.1303 19.516ZM45.4197 19.516C45.4197 19.0529 45.3394 18.6207 45.1758 18.2193C45.0122 17.818 44.793 17.466 44.509 17.1635C44.228 16.864 43.9008 16.6294 43.5241 16.4596C43.1506 16.2898 42.7492 16.2064 42.3232 16.2064C41.8971 16.2064 41.4989 16.2898 41.1222 16.4596C40.7487 16.6294 40.4184 16.864 40.1374 17.1635C39.8565 17.466 39.6342 17.8149 39.4706 18.2193C39.3069 18.6207 39.2267 19.0529 39.2267 19.516C39.2267 19.9791 39.31 20.4113 39.4706 20.8126C39.6311 21.214 39.8534 21.5659 40.1374 21.8685C40.4184 22.1679 40.7456 22.4026 41.1222 22.5724C41.4989 22.7422 41.8971 22.8255 42.3232 22.8255C42.7492 22.8255 43.1475 22.7422 43.5241 22.5724C43.8977 22.4026 44.228 22.1679 44.509 21.8685C44.7899 21.5659 45.0122 21.2171 45.1758 20.8126C45.3394 20.4144 45.4197 19.9791 45.4197 19.516Z" fill="white"/>
<path d="M59.4513 24.9526H56.7438V24.1252C56.5678 24.3012 56.364 24.4556 56.1325 24.5883C55.9009 24.7211 55.6571 24.8322 55.3977 24.9248C55.1415 25.0206 54.876 25.0916 54.6074 25.141C54.3388 25.1904 54.0826 25.2181 53.8448 25.2181C53.2922 25.2181 52.7643 25.1317 52.2549 24.9557C51.7486 24.7797 51.2978 24.5112 50.9088 24.1469C50.5199 23.7826 50.208 23.3133 49.9796 22.736C49.748 22.1587 49.6307 21.4764 49.6307 20.686V14.0793H52.3382V20.5502C52.3382 20.9392 52.3969 21.2819 52.5173 21.5752C52.6346 21.8715 52.7921 22.1154 52.9866 22.3099C53.1811 22.5044 53.4064 22.6465 53.6627 22.7422C53.9189 22.8348 54.1844 22.8811 54.4623 22.8811C55.3391 22.8811 56.0985 22.5816 56.7376 21.9796V14.0793H59.4451V24.9526H59.4513Z" fill="white"/>
<path d="M69.5127 15.2093L68.0647 17.5031C67.8023 17.216 67.509 16.9628 67.191 16.7436C66.87 16.5244 66.5489 16.4133 66.2216 16.4133C66.0457 16.4133 65.8543 16.4534 65.6474 16.5368C65.4406 16.6201 65.2461 16.7529 65.0639 16.9412C64.8818 17.1295 64.7274 17.3765 64.6039 17.6852C64.4773 17.994 64.4156 18.3706 64.4156 18.8244V24.9557H61.7081V14.0793H64.4156V15.2463C64.7398 14.7832 65.101 14.4251 65.4961 14.175C65.8913 13.925 66.3328 13.7984 66.8237 13.7984C67.2991 13.7984 67.7684 13.928 68.2253 14.1843C68.6822 14.4405 69.1113 14.7832 69.5127 15.2093Z" fill="white"/>
<path d="M83.1429 14.0793L79.0615 24.9712H76.3911L72.2912 14.0793H75.2611L77.7248 21.3776L80.1884 14.0793H83.1429Z" fill="white"/>
<path d="M72.2171 23.4862C72.2171 24.292 71.5657 24.9434 70.7599 24.9434C69.9541 24.9434 69.3027 24.292 69.3027 23.4862C69.3027 22.6804 69.9541 22.029 70.7599 22.029C71.5626 22.029 72.2171 22.6835 72.2171 23.4862Z" fill="white"/>
<path fill-rule="evenodd" clip-rule="evenodd" d="M96.3316 13.2365C96.4027 13.0204 96.4675 12.7981 96.5508 12.582C97.051 11.2792 97.6221 10.0072 98.3507 8.81554C98.8323 8.02521 99.3263 7.23487 99.8789 6.49084C100.641 5.46587 101.497 4.51191 102.512 3.72157C102.948 3.38506 103.398 3.06707 103.843 2.73982C103.874 2.71513 103.899 2.68425 103.905 2.60707C103.846 2.63177 103.778 2.64721 103.726 2.68117C102.911 3.26157 102.077 3.8111 101.293 4.43164C99.9592 5.4844 98.7181 6.64829 97.6252 7.95111C96.9676 8.73219 96.3687 9.56575 95.7821 10.4024C95.4888 10.8161 95.282 11.2915 95.0196 11.7639C93.2537 10.0751 91.179 9.76951 88.8296 10.4827C90.2034 6.8397 92.5189 4.05808 95.8439 2.14707C101.188 -0.918575 107.918 -0.773473 113.179 3.04855C117.856 6.44453 120.119 12.193 119.662 17.1295C117.791 15.8854 115.831 15.6291 113.738 16.6078C113.818 15.0765 113.577 13.6162 113.253 12.1652C112.926 10.7049 112.49 9.27863 111.91 7.89554C111.342 6.54641 110.709 5.23741 109.937 3.99634C109.909 4.01177 109.879 4.02721 109.851 4.04265C110.017 4.36372 110.19 4.67862 110.348 5.00587C110.996 6.355 111.382 7.7844 111.635 9.25393C111.882 10.6833 112.04 12.122 112.098 13.5699C112.141 14.6474 112.104 15.7217 111.947 16.7899C111.932 16.9011 111.919 17.0122 111.904 17.1542C109.934 14.9839 107.588 13.4896 104.744 12.8012C101.91 12.1158 99.1256 12.2764 96.3872 13.2828C96.3656 13.2674 96.3502 13.2519 96.3316 13.2365Z" fill="white"/>
<path fill-rule="evenodd" clip-rule="evenodd" d="M103.056 21.1584H103.05C103.55 18.9726 104.053 16.7899 104.547 14.6011C104.565 14.5146 104.522 14.3603 104.463 14.3078C104.081 13.9805 103.642 13.8354 103.151 13.8972C103.019 13.9126 102.951 13.9743 102.923 14.1225C102.852 14.4807 102.781 14.8419 102.701 15.1969C102.241 17.2036 101.781 19.2103 101.318 21.2171L101.327 21.2201C100.827 23.4059 100.323 25.5886 99.8295 27.7775C99.811 27.8639 99.8542 28.0183 99.9129 28.0708C100.296 28.398 100.734 28.5462 101.225 28.4814C101.358 28.4659 101.426 28.4042 101.453 28.2591C101.524 27.901 101.595 27.5398 101.676 27.1816C102.13 25.1718 102.593 23.1651 103.056 21.1584Z" fill="white"/>
<path fill-rule="evenodd" clip-rule="evenodd" d="M112.688 31.6118C112.688 31.6118 99.6597 21.5258 83.7387 30.8339C83.7387 30.8339 83.3003 31.2136 83.9363 31.2352C83.9363 31.2352 97.5079 24.4031 112.5 31.9978C112.497 31.9978 112.957 32.0533 112.688 31.6118Z" fill="white"/>
<path d="M94.257 24.6933V18.3336C94.257 17.5432 94.1366 16.8609 93.8989 16.2836C93.6612 15.7063 93.3432 15.237 92.948 14.8727C92.5528 14.5084 92.1021 14.2399 91.5958 14.0639C91.0864 13.8879 90.5585 13.8015 90.0059 13.8015C89.7558 13.8015 89.4965 13.8262 89.2248 13.8756C88.9562 13.925 88.6907 13.999 88.4344 14.0917C88.1782 14.1843 87.9281 14.3016 87.6904 14.4374C87.4527 14.5764 87.252 14.7276 87.0884 14.8882L87.0699 14.0793H84.3624V24.9495H87.0699V17.0338C87.3971 16.722 87.7614 16.4935 88.1658 16.3454C88.5672 16.2033 88.9778 16.1293 89.3946 16.1293C89.6724 16.1293 89.941 16.1756 90.1973 16.2713C90.4566 16.3639 90.6851 16.509 90.8857 16.7035C91.0864 16.898 91.2469 17.1419 91.3673 17.4352C91.4877 17.7315 91.5464 18.0711 91.5464 18.4601V24.9495C91.5495 24.9526 92.3614 24.5667 94.257 24.6933Z" fill="white"/>
</svg>
