<svg width="52" height="52" viewBox="0 0 52 52" fill="none" xmlns="http://www.w3.org/2000/svg">
<g clip-path="url(#clip0)">
<path d="M26.5417 10.2917L32.5001 6.5L36.8334 9.20833L41.7084 13.5417L42.7917 15.1667L44.9584 18.4167L44.4167 20.5833L42.2501 23.8333H22.7501L20.0417 18.9583L21.6667 15.7083L26.5417 10.2917Z" fill="#FFDFEE"/>
<path d="M49.6052 26.4856V9.8799C49.6052 5.76631 46.2585 2.41963 42.1449 2.41963H9.85512C5.74153 2.41963 2.39484 5.76631 2.39484 9.8799V26.4856C1.01725 26.8565 0 28.1159 0 29.6091V41.6849C0 43.2061 1.05584 44.4847 2.47295 44.8282V46.8135C2.47295 48.3391 3.71414 49.5803 5.23971 49.5803H9.1327C10.6583 49.5803 11.8995 48.3391 11.8995 46.8135V44.9197H14.9633C15.384 44.9197 15.725 44.5786 15.725 44.1579C15.725 43.7373 15.384 43.3962 14.9633 43.3962H11.1397C11.139 43.3962 11.1384 43.3961 11.1378 43.3961H3.23466C3.23436 43.3961 3.23405 43.3961 3.23375 43.3961C2.29054 43.3956 1.52344 42.6282 1.52344 41.6849V29.6091C1.52344 28.6774 2.27226 27.9186 3.19952 27.8995H48.8005C49.7277 27.9185 50.4766 28.6774 50.4766 29.6091V41.6849C50.4766 42.6282 49.7095 43.3956 48.7663 43.3962C48.7659 43.3962 48.7656 43.3962 48.7653 43.3962H40.8624C40.8616 43.3962 40.861 43.3963 40.8604 43.3963H18.002C17.5813 43.3963 17.2402 43.7374 17.2402 44.158C17.2402 44.5787 17.5813 44.9198 18.002 44.9198H40.1006V46.8136C40.1006 48.3392 41.3418 49.5804 42.8674 49.5804H46.7604C48.286 49.5804 49.5272 48.3392 49.5272 46.8136V44.8283C50.9442 44.4847 52 43.2061 52 41.6849V29.6091C52 28.1159 50.9827 26.8565 49.6052 26.4856ZM10.3759 46.8135C10.3759 47.499 9.81815 48.0568 9.1326 48.0568H5.23961C4.55406 48.0568 3.99628 47.499 3.99628 46.8135V44.9197H10.3758V46.8135H10.3759ZM19.2832 19.3265C19.9979 20.683 20.7983 21.9721 21.6708 23.1759H10.591C9.57267 21.8823 8.6451 20.472 7.83047 18.9715C10.5582 13.9506 14.4828 10.0259 19.5046 7.29727C21.4661 8.36327 23.2701 9.61645 24.8818 11.031C22.6729 13.2062 20.7911 15.7537 19.2831 18.6164C19.1661 18.8386 19.1661 19.1043 19.2832 19.3265ZM46.605 24.6994C47.4189 24.6994 48.0811 25.3613 48.0817 26.1751V26.3744H3.91828V26.1761C3.91828 25.3618 4.58067 24.6994 5.395 24.6994H46.605ZM9.85512 3.94306H42.1449C45.4184 3.94306 48.0817 6.60634 48.0817 9.8799V23.5661C47.6454 23.3182 47.1417 23.1759 46.605 23.1759H43.3182C44.192 21.971 44.9927 20.6818 45.7067 19.3265C45.8238 19.1043 45.8238 18.8385 45.7067 18.6162C44.7588 16.8179 43.6607 15.1363 42.4431 13.6179C42.1799 13.2898 41.7004 13.237 41.3723 13.5002C41.0441 13.7633 40.9914 14.2428 41.2546 14.571C42.3314 15.9137 43.3106 17.3926 44.1689 18.9716C43.3531 20.4729 42.4253 21.8833 41.4077 23.1759H23.5812C22.5651 21.885 21.6377 20.4746 20.8209 18.9715C22.3529 16.1517 24.2681 13.6637 26.5179 11.5717C28.2797 9.93241 30.2888 8.49591 32.4949 7.29747C35.0471 8.68441 37.3289 10.3851 39.2815 12.3565C39.5777 12.6554 40.06 12.6576 40.3587 12.3617C40.6576 12.0656 40.6599 11.5833 40.3639 11.2845C38.2117 9.11158 35.6837 7.25278 32.8501 5.75981C32.6279 5.64271 32.3623 5.64271 32.1401 5.75971C29.8905 6.94454 27.8283 8.36489 25.9996 9.98623C24.1731 8.36631 22.1113 6.94586 19.8597 5.75961C19.6375 5.64251 19.3718 5.64251 19.1496 5.75961C13.5613 8.7035 9.23569 13.0291 6.29281 18.6165C6.17581 18.8386 6.17581 19.1041 6.29271 19.3262C7.00578 20.6811 7.8063 21.9704 8.68055 23.1762H5.395C4.85834 23.1762 4.35459 23.3184 3.91828 23.5664V9.8799C3.91828 6.60634 6.58156 3.94306 9.85512 3.94306ZM46.7604 48.0569H42.8674C42.1819 48.0569 41.6241 47.4991 41.6241 46.8136V44.9198H48.0036V46.8136C48.0036 47.4991 47.4459 48.0569 46.7604 48.0569Z" fill="#473C41"/>
<rect x="6" y="35" width="11" height="1.8" rx="0.9" fill="#FF1284"/>
</g>
<defs>
<clipPath id="clip0">
<rect width="52" height="52" fill="white"/>
</clipPath>
</defs>
</svg>
