<svg width="24" height="24" viewBox="0 0 24 24" fill="none" xmlns="http://www.w3.org/2000/svg">
<rect width="24" height="24" rx="12" fill="#00B6F3"/>
<path fill-rule="evenodd" clip-rule="evenodd" d="M8.34801 10.6178C8.38339 10.5098 8.41569 10.3986 8.45723 10.2906C8.70643 9.63915 8.99101 9.00314 9.35404 8.40728C9.59401 8.01209 9.84014 7.61691 10.1155 7.24488C10.4954 6.73237 10.9215 6.25537 11.4276 5.86018C11.6445 5.69192 11.8691 5.53292 12.0906 5.36929C12.106 5.35694 12.1183 5.3415 12.1214 5.30291C12.0922 5.31526 12.0583 5.32298 12.0322 5.33996C11.6261 5.63017 11.2107 5.90495 10.82 6.21523C10.1555 6.74163 9.5371 7.32361 8.99255 7.97504C8.66489 8.3656 8.36647 8.7824 8.0742 9.20074C7.92806 9.40759 7.82499 9.64532 7.69424 9.88151C6.81435 9.03711 5.78062 8.88428 4.61 9.24087C5.29453 7.41931 6.44824 6.02845 8.10496 5.0729C10.7662 3.54001 14.1181 3.61411 16.7408 5.5252C19.0713 7.22326 20.1989 10.0976 19.9712 12.566C19.039 11.9439 18.0622 11.8158 17.0193 12.3051C17.0593 11.5394 16.9393 10.8093 16.7778 10.0837C16.6147 9.35356 16.3978 8.64038 16.1086 7.9488C15.8256 7.27421 15.5102 6.61968 15.1257 5.99911C15.1118 6.00683 15.0964 6.01455 15.0826 6.02227C15.1657 6.18281 15.2518 6.34027 15.3302 6.5039C15.6533 7.1785 15.8456 7.89323 15.9717 8.62803C16.0948 9.34276 16.1732 10.0621 16.2024 10.7861C16.224 11.3249 16.2055 11.8621 16.1271 12.3962C16.1194 12.4518 16.1132 12.5073 16.1055 12.5783C15.1241 11.4931 13.955 10.746 12.5383 10.4017C11.1261 10.059 9.73861 10.1393 8.37416 10.6425C8.36493 10.6333 8.3557 10.6256 8.34801 10.6178Z" fill="white"/>
<path fill-rule="evenodd" clip-rule="evenodd" d="M11.6984 14.579H11.6953C11.9445 13.486 12.1952 12.3946 12.4414 11.3002C12.4506 11.2569 12.4291 11.1798 12.3998 11.1535C12.2091 10.9899 11.9906 10.9173 11.7461 10.9482C11.6799 10.9559 11.6461 10.9868 11.6322 11.0609C11.5968 11.24 11.5615 11.4206 11.5215 11.5981C11.2923 12.6015 11.0631 13.6049 10.8323 14.6083L10.8369 14.6098C10.5877 15.7028 10.337 16.7942 10.0909 17.8887C10.0816 17.9319 10.1032 18.0091 10.1324 18.0353C10.3232 18.1989 10.5416 18.273 10.7862 18.2406C10.8523 18.2329 10.8862 18.202 10.9 18.1295C10.9354 17.9504 10.9708 17.7698 11.0108 17.5907C11.2369 16.5858 11.4661 15.5824 11.6984 14.579Z" fill="white"/>
<path fill-rule="evenodd" clip-rule="evenodd" d="M16.4978 19.8059C16.4978 19.8059 10.0063 14.7627 2.07338 19.4169C2.07338 19.4169 1.85494 19.6068 2.17183 19.6176C2.17183 19.6176 8.93409 16.2014 16.404 19.9989C16.4024 19.9989 16.6301 20.0267 16.4978 19.8059Z" fill="white"/>
</svg>
