<svg width="332" height="29" viewBox="0 0 332 29" fill="none" xmlns="http://www.w3.org/2000/svg">
<path d="M24.9188 22.0159C24.9188 20.2462 26.2343 19.0559 27.8474 19.0559C28.8497 19.0559 29.5544 19.4944 30.0713 20.1208L29.5075 20.4654C29.1473 20.0113 28.5365 19.6824 27.8631 19.6824C26.6102 19.6824 25.6705 20.6377 25.6705 22.0002C25.6705 23.3471 26.6259 24.3337 27.8631 24.3337C28.5521 24.3337 29.116 24.0048 29.3978 23.7229V22.564H27.4403V21.9376H30.1183V24.0048C29.5858 24.6 28.8027 24.9915 27.8788 24.9915C26.2343 24.9758 24.9188 23.7855 24.9188 22.0159Z" fill="#4A5568"/>
<path d="M36.1636 24.8661L34.7072 22.5952H33.5639V24.8661H32.8592V19.1655H35.1457C36.195 19.1655 36.9311 19.8389 36.9311 20.8882C36.9311 21.9218 36.2263 22.4857 35.4433 22.5483L36.978 24.8818H36.1636V24.8661ZM36.2107 20.8725C36.2107 20.2305 35.7408 19.7919 35.0674 19.7919H33.5639V21.9688H35.0674C35.7565 21.9688 36.2107 21.5146 36.2107 20.8725Z" fill="#4A5568"/>
<path d="M39.2333 22.0158C39.2333 20.3245 40.3765 19.0559 42.0679 19.0559C43.7594 19.0559 44.9026 20.3245 44.9026 22.0158C44.9026 23.7072 43.7594 24.9758 42.0679 24.9758C40.3608 24.9758 39.2333 23.7072 39.2333 22.0158ZM44.1509 22.0158C44.1509 20.6846 43.3365 19.698 42.0523 19.698C40.7681 19.698 39.9537 20.6846 39.9537 22.0158C39.9537 23.3471 40.7681 24.3337 42.0523 24.3337C43.3365 24.3337 44.1509 23.3471 44.1509 22.0158Z" fill="#4A5568"/>
<path d="M47.1109 22.6423V19.1655H47.8157V22.6423C47.8157 23.6915 48.3794 24.3493 49.4287 24.3493C50.478 24.3493 51.0418 23.6915 51.0418 22.6423V19.1655H51.7465V22.6423C51.7465 24.0674 50.9635 24.9758 49.413 24.9758C47.894 24.9758 47.1109 24.0518 47.1109 22.6423Z" fill="#4A5568"/>
<path d="M54.5966 24.8661V19.1655H56.8831C58.0264 19.1655 58.6685 19.9485 58.6685 20.8882C58.6685 21.8279 58.0107 22.6109 56.8831 22.6109H55.3014V24.8661H54.5966ZM57.9324 20.8725C57.9324 20.2305 57.4783 19.7919 56.7892 19.7919H55.2857V21.9688H56.7892C57.4783 21.9688 57.9324 21.5146 57.9324 20.8725Z" fill="#4A5568"/>
<path d="M4.91977 4.3501H0.31543V8.95446H4.91977V4.3501Z" fill="#4A5568"/>
<path d="M11.0899 14.6707L7.09631 4.3501H9.60209L12.4681 12.2903L15.3184 4.3501H17.8241L13.8462 14.6707H11.0899Z" fill="#4A5568"/>
<path d="M26.0471 14.6707L21.1295 7.93649V14.6707H18.9369V4.3501H21.1921L25.9688 10.8338V4.3501H28.1613V14.6707H26.0471Z" fill="#4A5568"/>
<path d="M29.2731 6.27641H32.2957V14.6707H34.5039V4.3501H29.2731V6.27641Z" fill="#4A5568"/>
<path d="M44.417 14.6707L42.3967 11.006H40.7836V14.6707H38.591V4.3501H43.4146C45.5603 4.3501 46.8758 5.7596 46.8758 7.67025C46.8758 9.50257 45.7325 10.4736 44.6206 10.7398L46.9384 14.6707H44.417ZM44.6363 7.67025C44.6363 6.80889 43.9628 6.27641 43.0858 6.27641H40.7836V9.06413H43.0858C43.9785 9.06413 44.6363 8.54727 44.6363 7.67025Z" fill="#4A5568"/>
<path d="M55.7087 14.6707L55.0666 12.9167H50.6345L49.9767 14.6707H47.4709L51.4958 4.3501H54.2522L58.2301 14.6707H55.7087ZM52.8741 6.54265L51.2609 10.9904H54.4871L52.8741 6.54265Z" fill="#4A5568"/>
<path d="M60.5478 14.6707L56.5543 4.3501H59.06L61.926 12.2903L64.7763 4.3501H67.2821L63.3042 14.6707H60.5478Z" fill="#4A5568"/>
<path d="M68.3316 14.6707V4.3501H75.6297V6.27641H70.5242V8.45331H75.5201V10.3796H70.5242V12.7131H75.6297V14.6551H68.3316V14.6707Z" fill="#4A5568"/>
<path d="M77.8535 14.6707V4.3501H80.046V12.7444H84.4155V14.6864H77.8535V14.6707Z" fill="#4A5568"/>
<path d="M4.91977 10.0667H0.31543V14.6709H4.91977V10.0667Z" fill="#4A5568"/>
<path d="M37.4947 4.3501H35.5685V6.27641H37.4947V4.3501Z" fill="#4A5568"/>
<path d="M97.6922 0.90625V28.0938" stroke="#4A5568" stroke-width="0.5"/>
<path d="M137.567 8.64474V10.1086C137.567 10.3128 137.401 10.4788 137.197 10.4788H135.725C135.52 10.4788 135.354 10.6448 135.354 10.849V18.2023C135.354 18.4065 135.188 18.5725 134.984 18.5725H133.503C133.299 18.5725 133.133 18.4065 133.133 18.2023V10.8447C133.133 10.6405 132.967 10.4745 132.762 10.4745H131.299C131.095 10.4745 130.929 10.3086 130.929 10.1043V8.64048C130.929 8.43623 131.095 8.27026 131.299 8.27026H137.188C137.401 8.27877 137.567 8.44473 137.567 8.64474Z" fill="#4A5568"/>
<path d="M143.456 12.3296V13.0657C143.456 13.27 143.29 13.4359 143.086 13.4359H141.614C141.41 13.4359 141.244 13.27 141.244 13.0657C141.244 12.8615 141.078 12.6955 140.873 12.6955H140.137C139.933 12.6955 139.767 12.8615 139.767 13.0657V18.1976C139.767 18.4019 139.601 18.5678 139.397 18.5678H137.924C137.72 18.5678 137.555 18.4019 137.555 18.1976V11.5933C137.555 11.3891 137.72 11.2231 137.924 11.2231H142.341C142.963 11.2231 143.456 11.7168 143.456 12.3296Z" fill="#4A5568"/>
<path d="M158.184 11.5933V18.1976C158.184 18.4019 158.019 18.5678 157.814 18.5678H156.333C156.129 18.5678 155.963 18.4019 155.963 18.1976V11.5933C155.963 11.3891 156.129 11.2231 156.333 11.2231H157.814C158.022 11.2231 158.184 11.3891 158.184 11.5933Z" fill="#4A5568"/>
<path d="M153.406 11.2231H148.248C148.043 11.2231 147.878 11.3891 147.878 11.5933V21.1551C147.878 21.3594 148.043 21.5253 148.248 21.5253H149.716C149.92 21.5253 150.086 21.3594 150.086 21.1551V18.9466C150.086 18.7424 150.252 18.5764 150.457 18.5764H153.409C154.018 18.5764 154.516 18.0827 154.516 17.47V12.3296C154.512 11.7168 154.018 11.2231 153.406 11.2231ZM152.304 16.7339C152.304 16.938 152.137 17.1041 151.933 17.1041H150.452C150.248 17.1041 150.082 16.938 150.082 16.7339V13.0615C150.082 12.8572 150.248 12.6913 150.452 12.6913H151.933C152.137 12.6913 152.304 12.8572 152.304 13.0615V16.7339Z" fill="#4A5568"/>
<path d="M146.409 11.5933V18.1976C146.409 18.4019 146.244 18.5678 146.04 18.5678H144.558C144.354 18.5678 144.188 18.4019 144.188 18.1976V11.5933C144.188 11.3891 144.354 11.2231 144.558 11.2231H146.04C146.244 11.2231 146.409 11.3891 146.409 11.5933Z" fill="#4A5568"/>
<path d="M146.409 8.64463V9.36804C146.409 9.57231 146.244 9.73825 146.04 9.73825H144.558C144.354 9.73825 144.188 9.57231 144.188 9.36804V8.64463C144.188 8.44038 144.354 8.27441 144.558 8.27441H146.04C146.244 8.27867 146.409 8.44463 146.409 8.64463Z" fill="#4A5568"/>
<path d="M158.184 8.64463V9.36804C158.184 9.57231 158.019 9.73825 157.814 9.73825H156.333C156.129 9.73825 155.963 9.57231 155.963 9.36804V8.64463C155.963 8.44038 156.129 8.27441 156.333 8.27441H157.814C158.022 8.27867 158.184 8.44463 158.184 8.64463Z" fill="#4A5568"/>
<path d="M125.911 7.78499C124.911 6.91264 123.707 6.43605 122.494 6.34668C123.375 7.7552 123.741 9.48287 123.371 11.2148L123.367 11.2318C123.354 11.2956 123.337 11.368 123.316 11.4488C123.248 11.7127 123.167 11.968 123.069 12.2148C122.422 13.9552 120.996 16.3 119.354 18.3255C118.392 19.5127 117.133 20.8659 115.971 21.517C118.609 21.2872 123.614 18.8659 125.911 16.8403C126.094 16.6829 126.269 16.5127 126.435 16.3297C126.486 16.2744 126.537 16.2191 126.58 16.1637C128.678 13.6914 128.38 9.93817 125.911 7.78499Z" fill="#4A5568"/>
<path d="M118.201 4.00203C115.013 3.27011 111.878 5.24884 111.201 8.42333C111.188 8.49142 111.171 8.56376 111.163 8.64036C111.12 8.88717 111.09 9.13396 111.082 9.38083C110.835 13.2064 112.661 20.8277 114.524 21.2532C116.393 21.683 121.15 15.5681 122.477 11.9893C122.567 11.7638 122.639 11.534 122.698 11.2915C122.716 11.2191 122.737 11.1467 122.75 11.0787C123.426 7.90418 121.392 4.73395 118.201 4.00203ZM116.435 17.0234C116.665 17.1681 117.184 17.1382 117.473 17.0021C117.473 17.0021 117.439 17.4404 117.256 17.8276C116.928 18.5383 115.856 19.0957 114.78 18.7255C113.584 18.3085 113.55 16.8702 113.669 16.1808C113.788 15.4872 114.857 10.4957 114.857 10.4957C115.095 9.51269 115.746 8.76801 116.83 8.73823C117.154 8.73823 117.439 8.84461 117.729 8.98929C117.729 8.98929 116.363 15.4276 116.256 15.9298C116.197 16.2149 116.095 16.8064 116.435 17.0234ZM116.954 7.91694C116.248 7.91694 115.678 7.34673 115.678 6.64035C115.678 5.93396 116.248 5.36374 116.954 5.36374C117.661 5.36374 118.231 5.93396 118.231 6.64035C118.231 7.34247 117.661 7.91694 116.954 7.91694Z" fill="#4A5568"/>
<path d="M230.114 10.7111C229.13 9.75146 227.9 9.25928 226.423 9.25928C224.947 9.25928 223.716 9.75146 222.757 10.7111C221.773 11.6707 221.28 12.901 221.28 14.3528C221.28 15.8045 221.773 17.0347 222.757 17.9943C223.742 18.954 224.947 19.4462 226.423 19.4462C227.9 19.4462 229.13 18.954 230.114 17.9943C231.099 17.0347 231.591 15.829 231.591 14.3528C231.591 12.901 231.099 11.6953 230.114 10.7111ZM226.448 16.8133C225.095 16.8133 223.987 15.7061 223.987 14.3528C223.987 12.9994 225.095 11.8921 226.448 11.8921C227.802 11.8921 228.908 12.9994 228.908 14.3528C228.884 15.7061 227.802 16.8133 226.448 16.8133Z" fill="#4A5568"/>
<path d="M182.994 5.69116H180.288V9.82491C179.574 9.45589 178.737 9.25905 177.826 9.25905C176.35 9.25905 175.12 9.75114 174.161 10.7108C173.177 11.6704 172.684 12.9006 172.684 14.3524C172.684 15.8287 173.177 17.0345 174.161 17.9941C175.145 18.9537 176.35 19.4458 177.826 19.4458C179.303 19.4458 180.533 18.9537 181.518 17.9941C182.502 17.0345 182.994 15.8287 182.994 14.3524V5.69116ZM177.826 16.813C176.473 16.813 175.366 15.7058 175.366 14.3524C175.366 12.9991 176.473 11.8918 177.826 11.8918C179.18 11.8918 180.288 12.9991 180.288 14.3524C180.288 15.7058 179.205 16.813 177.826 16.813Z" fill="#4A5568"/>
<path d="M220.37 14.1066C220.37 14.0574 220.37 14.0082 220.37 13.959C220.37 13.9098 220.37 13.8606 220.346 13.8114C220.346 13.7376 220.321 13.6637 220.321 13.59C220.321 13.5408 220.297 13.5161 220.297 13.4669C220.297 13.4177 220.272 13.3931 220.272 13.3438C220.1 12.3104 219.633 11.4492 218.894 10.7111C218.132 9.97286 217.246 9.50541 216.212 9.33314H216.188C216.114 9.30849 216.04 9.30849 215.966 9.30849C215.818 9.28393 215.671 9.28393 215.498 9.25928C215.425 9.25928 215.376 9.25928 215.302 9.25928H215.228C213.752 9.25928 212.521 9.75146 211.562 10.7111C210.577 11.6707 210.085 12.901 210.085 14.3528C210.085 15.8045 210.577 17.0347 211.562 17.9943C212.546 18.954 213.752 19.4462 215.228 19.4462C216.065 19.4462 216.803 19.2985 217.492 18.9786C217.32 20.2582 216.557 20.8979 215.228 20.8979C214.392 20.8979 213.85 20.578 213.58 19.9628H210.282C210.356 20.4796 210.553 20.9717 210.873 21.4392C211.316 22.0789 211.931 22.5711 212.694 22.8909C213.382 23.1616 214.145 23.3092 215.032 23.3092C215.991 23.3092 216.877 23.137 217.738 22.7925C218.697 22.3988 219.412 21.8329 219.854 21.0701C220.1 20.6518 220.272 20.1351 220.346 19.5446C220.37 19.2985 220.396 19.0278 220.42 18.7326C220.42 18.6095 220.42 18.4865 220.42 18.3389V14.3528C220.37 14.2543 220.37 14.1805 220.37 14.1066ZM215.277 16.7887C213.924 16.7887 212.817 15.6814 212.817 14.3281C212.817 12.9748 213.924 11.8676 215.277 11.8676C216.63 11.8676 217.738 12.9748 217.738 14.3281C217.738 15.6814 216.63 16.7887 215.277 16.7887Z" fill="#4A5568"/>
<path d="M201.989 13.5894C201.669 13.5894 201.423 13.8354 201.423 14.1552C201.423 14.4751 201.669 14.7212 201.989 14.7212C202.309 14.7212 202.555 14.4751 202.555 14.1552C202.555 13.8354 202.309 13.5894 201.989 13.5894Z" fill="#4A5568"/>
<path d="M204.081 9.23413C201.227 9.23413 198.914 11.5225 198.914 14.3522C198.914 16.0992 199.799 17.6494 201.153 18.5844C201.251 17.8462 201.276 17.2064 201.276 17.2064C201.276 17.2064 200.562 16.1976 200.144 14.672C199.726 13.1465 203.195 11.5225 204.696 11.1288C206.198 10.7351 206.812 12.5559 206.812 12.5559L206.886 12.7774L206.32 12.5806L206.419 13.2695L205.779 13.0481L205.878 13.6386L205.287 13.3926L205.41 14.0077L204.844 13.7862L204.991 14.3275L204.376 14.2291L203.638 14.8935L204.574 15.2872L204.893 14.8935L205.386 15.3364L205.656 14.8935L206.099 15.2872L206.419 14.8197L206.788 15.1642L207.107 14.672C207.107 14.672 207.329 15.0903 206.984 15.8531C206.615 16.6159 203.81 17.4525 203.81 17.4525C204.056 17.7478 204.228 18.0676 204.376 18.3629C204.376 18.3875 204.401 18.4121 204.401 18.4367C204.548 18.2891 204.967 17.92 205.336 18.0431C205.336 18.0431 205.607 18.1168 205.779 18.4367L205.533 18.3875V18.6089L205.287 18.5105L205.311 18.732L205.04 18.6089L204.671 19.2487C204.696 19.3225 204.696 19.3717 204.696 19.4456C207.255 19.1257 209.224 16.985 209.224 14.3522C209.224 11.5225 206.911 9.23413 204.081 9.23413Z" fill="#4A5568"/>
<path d="M186.758 9.25928H183.904V19.4462H186.758V9.25928Z" fill="#4A5568"/>
<path d="M185.331 8.54544C186.12 8.54544 186.758 7.90649 186.758 7.11831C186.758 6.33011 186.12 5.69116 185.331 5.69116C184.543 5.69116 183.904 6.33011 183.904 7.11831C183.904 7.90649 184.543 8.54544 185.331 8.54544Z" fill="#4A5568"/>
<path d="M196.528 10.7111C196.331 10.5143 196.134 10.3665 195.937 10.2189C195.076 9.57918 194.043 9.25928 192.837 9.25928C191.631 9.25928 190.623 9.57918 189.761 10.2189C189.564 10.3665 189.368 10.5388 189.171 10.7111C188.187 11.6707 187.695 12.901 187.695 14.3528V19.4462H190.401V18.9048V14.5496V14.1558C190.499 12.901 191.557 11.9168 192.837 11.9168C194.116 11.9168 195.174 12.901 195.273 14.1558V14.5496V18.8802V19.4462H197.98V14.3528C198.004 12.901 197.512 11.6953 196.528 10.7111Z" fill="#4A5568"/>
<path d="M255.019 18.3583H253.019V13.5847C253.019 13.0163 252.882 12.5844 252.609 12.3116C252.337 12.0161 251.996 11.8797 251.61 11.8797C251.314 11.8797 251.019 11.9252 250.746 12.0161C250.496 12.107 250.223 12.2662 249.973 12.4935C250.064 12.8117 250.086 13.1755 250.086 13.5847V18.3583H248.086V13.5847C248.086 13.0163 247.949 12.5844 247.677 12.3116C247.404 12.0161 247.086 11.8797 246.677 11.8797C246.382 11.8797 246.109 11.9252 245.881 12.0389C245.654 12.1525 245.404 12.3116 245.154 12.5389V18.3583H243.176V10.3567H245.176V10.9477C245.426 10.6977 245.722 10.5158 246.063 10.3567C246.404 10.1975 246.745 10.1294 247.086 10.1294C247.473 10.1294 247.859 10.2203 248.267 10.4022C248.654 10.584 248.995 10.8341 249.291 11.175C249.7 10.8113 250.132 10.5386 250.564 10.3794C250.996 10.2203 251.45 10.1521 251.973 10.1521C252.383 10.1521 252.791 10.2203 253.155 10.3339C253.519 10.4476 253.86 10.6522 254.133 10.925C254.406 11.1978 254.633 11.5388 254.792 11.9706C254.951 12.3799 255.042 12.9027 255.042 13.4937V18.3583H255.019Z" fill="#4A5568"/>
<path d="M263.817 10.3318L260.203 19.8565C259.93 20.5612 259.588 21.084 259.157 21.4023C258.725 21.7205 258.202 21.8796 257.611 21.8796C257.52 21.8796 257.406 21.8796 257.315 21.8569C257.202 21.8342 257.088 21.8114 256.997 21.7887L256.339 19.9247C256.497 19.9929 256.657 20.0611 256.815 20.1065C256.975 20.152 257.133 20.1748 257.293 20.1748C257.611 20.1748 257.884 20.1065 258.156 19.9701C258.407 19.8337 258.611 19.5609 258.747 19.1745L259.02 18.3789L255.906 10.3318H258.088L259.93 15.492L261.657 10.3318H263.817Z" fill="#4A5568"/>
<path d="M269.158 18.1764C268.954 18.3127 268.726 18.4036 268.453 18.4719C268.181 18.54 267.908 18.5628 267.658 18.5628C267.18 18.5628 266.794 18.4945 266.476 18.3809C266.158 18.2673 265.885 18.0854 265.703 17.8581C265.498 17.608 265.362 17.3125 265.271 16.9488C265.18 16.5851 265.135 16.1532 265.135 15.6531V12.1523H264.089V11.2431C264.725 10.9703 265.248 10.5839 265.658 10.061C266.066 9.53816 266.339 8.85622 266.476 8.01514H267.135V10.3565H269.158V12.1523H267.135V15.7895C267.135 15.994 267.157 16.1532 267.203 16.2895C267.249 16.4259 267.317 16.5169 267.407 16.5851C267.499 16.6533 267.59 16.6987 267.68 16.7442C267.794 16.767 267.908 16.7897 268.021 16.7897C268.181 16.7897 268.363 16.767 268.59 16.6987C268.817 16.6533 268.999 16.5623 269.158 16.4259V18.1764Z" fill="#4A5568"/>
<path d="M278.613 14.3575C278.613 14.9486 278.5 15.5169 278.272 16.0169C278.045 16.5398 277.75 16.9717 277.364 17.3354C276.977 17.6991 276.523 17.9946 276 18.2219C275.477 18.4493 274.931 18.5402 274.34 18.5402C273.749 18.5402 273.204 18.4266 272.681 18.2219C272.158 18.0174 271.703 17.6991 271.317 17.3354C270.93 16.9489 270.635 16.5171 270.407 15.9942C270.18 15.4714 270.066 14.9258 270.066 14.3348C270.066 13.7438 270.18 13.1982 270.407 12.6981C270.635 12.1753 270.93 11.7433 271.34 11.3569C271.726 10.9705 272.181 10.675 272.704 10.4476C273.227 10.2203 273.772 10.1294 274.34 10.1294C274.931 10.1294 275.477 10.243 276 10.4476C276.523 10.675 276.977 10.9705 277.364 11.3342C277.75 11.6978 278.045 12.1525 278.272 12.6753C278.5 13.2209 278.613 13.7664 278.613 14.3575ZM276.613 14.3575C276.613 14.0166 276.545 13.6983 276.431 13.4028C276.318 13.1072 276.158 12.8572 275.932 12.6299C275.727 12.4025 275.477 12.2434 275.204 12.107C274.931 11.9934 274.636 11.9252 274.318 11.9252C273.999 11.9252 273.703 11.9934 273.43 12.107C273.158 12.2207 272.908 12.4025 272.704 12.6299C272.499 12.8572 272.339 13.1072 272.203 13.4028C272.089 13.6983 272.021 14.0166 272.021 14.3575C272.021 14.6985 272.089 15.0167 272.203 15.3122C272.317 15.6078 272.476 15.8578 272.704 16.0852C272.908 16.3125 273.158 16.4716 273.43 16.608C273.703 16.7444 273.999 16.7899 274.318 16.7899C274.636 16.7899 274.931 16.7216 275.204 16.608C275.477 16.4944 275.727 16.3125 275.932 16.0852C276.136 15.8578 276.295 15.6078 276.431 15.3122C276.568 15.0167 276.613 14.6985 276.613 14.3575Z" fill="#4A5568"/>
<path d="M286.957 18.3569H284.957V17.7432C284.821 17.8795 284.684 17.9932 284.502 18.0841C284.321 18.1751 284.161 18.266 283.956 18.3341C283.775 18.4024 283.57 18.4479 283.366 18.4933C283.162 18.5388 282.98 18.5388 282.797 18.5388C282.389 18.5388 282.002 18.4705 281.638 18.3341C281.275 18.1977 280.933 18.0159 280.638 17.7432C280.342 17.4704 280.115 17.1294 279.956 16.6974C279.774 16.2655 279.706 15.7654 279.706 15.1971V10.3552H281.706V15.129C281.706 15.4244 281.752 15.6745 281.843 15.8791C281.934 16.1065 282.047 16.2655 282.184 16.4247C282.32 16.561 282.502 16.6747 282.684 16.7429C282.865 16.8111 283.07 16.8566 283.275 16.8566C283.911 16.8566 284.479 16.6293 284.957 16.1974V10.3552H286.957V18.3569Z" fill="#4A5568"/>
<path d="M294.368 11.196L293.3 12.8782C293.095 12.6736 292.89 12.469 292.664 12.3099C292.436 12.1508 292.186 12.0599 291.959 12.0599C291.822 12.0599 291.686 12.0826 291.526 12.1508C291.368 12.219 291.231 12.3099 291.095 12.4463C290.958 12.5827 290.845 12.7646 290.754 12.9918C290.663 13.2192 290.617 13.492 290.617 13.8329V18.3566H288.617V10.3549H290.617V11.2188C290.868 10.8777 291.118 10.605 291.413 10.4232C291.709 10.2413 292.027 10.1504 292.391 10.1504C292.732 10.1504 293.095 10.2413 293.413 10.4459C293.755 10.6277 294.073 10.8777 294.368 11.196Z" fill="#4A5568"/>
<path d="M304.394 10.3552L301.394 18.3796H299.415L296.392 10.3552H298.574L300.393 15.72L302.212 10.3552H304.394Z" fill="#4A5568"/>
<path d="M296.347 17.2892C296.347 17.8801 295.869 18.3576 295.278 18.3576C294.687 18.3576 294.21 17.8801 294.21 17.2892C294.21 16.6981 294.687 16.2207 295.278 16.2207C295.869 16.1981 296.347 16.6981 296.347 17.2892Z" fill="#4A5568"/>
<path fill-rule="evenodd" clip-rule="evenodd" d="M314.099 9.74259C314.145 9.58345 314.19 9.42431 314.258 9.26517C314.622 8.31044 315.054 7.37843 315.576 6.49188C315.94 5.90086 316.304 5.33256 316.69 4.78698C317.258 4.03683 317.873 3.33214 318.622 2.74111C318.941 2.49105 319.282 2.26373 319.6 2.01369C319.623 1.99095 319.646 1.96822 319.646 1.92275C319.6 1.94548 319.555 1.94548 319.51 1.96822C318.918 2.40013 318.304 2.8093 317.713 3.26394C316.736 4.03683 315.827 4.90065 315.008 5.85539C314.531 6.42369 314.077 7.03745 313.644 7.65121C313.44 7.94673 313.281 8.31044 313.076 8.65142C311.78 7.40116 310.258 7.17384 308.507 7.71941C309.507 5.03704 311.212 2.99116 313.667 1.58178C317.6 -0.668691 322.556 -0.577764 326.442 2.241C329.875 4.74152 331.557 8.96967 331.217 12.6068C329.83 11.6975 328.397 11.4929 326.852 12.2204C326.92 11.0837 326.738 10.0154 326.488 8.94693C326.238 7.87854 325.92 6.83286 325.511 5.80992C325.101 4.80971 324.624 3.85497 324.055 2.94569C324.033 2.96843 324.01 2.96843 323.987 2.99116C324.101 3.21847 324.238 3.46853 324.351 3.69585C324.828 4.69606 325.101 5.74173 325.306 6.83286C325.488 7.87854 325.601 8.94693 325.647 10.0154C325.669 10.811 325.647 11.6066 325.533 12.3795C325.511 12.4704 325.511 12.5385 325.511 12.6523C324.055 11.061 322.328 9.94713 320.236 9.44706C318.146 8.94693 316.099 9.0606 314.077 9.81073C314.122 9.76533 314.122 9.74259 314.099 9.74259Z" fill="#4A5568"/>
<path fill-rule="evenodd" clip-rule="evenodd" d="M319.056 15.5618C319.42 13.9479 319.783 12.3338 320.147 10.7426C320.169 10.6744 320.124 10.5608 320.079 10.5153C319.806 10.2652 319.465 10.1743 319.124 10.2197C319.033 10.2425 318.965 10.288 318.965 10.3789C318.92 10.6517 318.852 10.9018 318.805 11.1746C318.465 12.6521 318.124 14.1297 317.783 15.6072C317.419 17.2212 317.033 18.8352 316.669 20.4265C316.647 20.4946 316.692 20.6083 316.737 20.6538C317.01 20.9038 317.351 20.9948 317.692 20.9493C317.783 20.9493 317.828 20.9038 317.851 20.7901C317.896 20.5174 317.964 20.2673 318.011 19.9945C318.374 18.5169 318.715 17.0394 319.056 15.5618Z" fill="#4A5568"/>
<path fill-rule="evenodd" clip-rule="evenodd" d="M326.148 23.2671C326.148 23.2671 316.554 15.8337 304.825 22.6988C304.825 22.6988 304.507 22.9716 304.962 22.9943C304.962 22.9943 314.964 17.9705 325.988 23.5626C326.011 23.5399 326.352 23.5853 326.148 23.2671Z" fill="#4A5568"/>
<path d="M312.576 18.1748V13.492C312.576 12.901 312.485 12.4008 312.303 11.9916C312.122 11.5598 311.894 11.2188 311.599 10.946C311.303 10.6732 310.985 10.4686 310.598 10.3549C310.235 10.2185 309.825 10.1504 309.439 10.1504C309.257 10.1504 309.052 10.1731 308.871 10.1958C308.666 10.2413 308.484 10.2868 308.28 10.3549C308.098 10.4232 307.916 10.5141 307.735 10.605C307.552 10.7187 307.416 10.8096 307.302 10.946L307.28 10.3549H305.28V18.3566H307.28V12.5372C307.53 12.3099 307.78 12.128 308.075 12.0371C308.371 11.9235 308.666 11.878 308.984 11.878C309.189 11.878 309.394 11.9235 309.575 11.9916C309.757 12.0599 309.94 12.1735 310.076 12.3099C310.235 12.4463 310.348 12.6282 310.439 12.8555C310.53 13.0827 310.576 13.3329 310.576 13.6057V18.3793C310.576 18.3566 311.189 18.0838 312.576 18.1748Z" fill="#4A5568"/>
</svg>
