 <svg width="36" height="36" fill="none">
            <path
              d="M18 28.542c5.822 0 10.542-4.72 10.542-10.542S23.822 7.458 18 7.458 7.458 12.178 7.458 18 12.178 28.542 18 28.542z"
              fill="#1877F2"></path>
            <path
              d="M22.104 21.047L22.57 18h-2.924v-1.977c0-.834.409-1.647 1.718-1.647h1.33v-2.594a16.18 16.18 0 00-2.36-.206c-2.408 0-3.982 1.46-3.982 4.102V18h-2.677v3.047h2.677v7.366c1.091.171 2.203.171 3.294 0v-7.366h2.457z"
              fill="#fff"></path>
          </svg>