<svg width="165" height="44" viewBox="0 0 165 44" fill="none" xmlns="http://www.w3.org/2000/svg">
<path d="M22.1376 34.3099H18.4147V25.3869C18.4147 24.3384 18.16 23.5404 17.6506 22.997C17.1412 22.4536 16.5172 22.182 15.7786 22.182C15.2098 22.182 14.6706 22.2711 14.1612 22.4536C13.6518 22.6319 13.1594 22.9291 12.6755 23.3451C12.8283 23.9479 12.909 24.6313 12.909 25.3869V34.3099H9.18613V25.3869C9.18613 24.3384 8.93143 23.5404 8.42203 22.997C7.91264 22.4536 7.29712 22.182 6.57122 22.182C6.0024 22.182 5.50149 22.2838 5.07275 22.4791C4.63976 22.6786 4.19404 22.9928 3.72709 23.4257V34.3141H0V19.3591H3.72285L3.72709 20.4712C4.19404 20.0255 4.74164 19.6605 5.3699 19.3845C5.99815 19.1086 6.64339 18.9685 7.29712 18.9685C8.02301 18.9685 8.75314 19.1341 9.48328 19.4609C10.2177 19.7878 10.8587 20.2632 11.4105 20.8873C12.1873 20.1996 12.9726 19.7029 13.7665 19.41C14.5603 19.1171 15.4305 18.9685 16.3814 18.9685C17.1582 18.9685 17.8968 19.0831 18.593 19.3166C19.2934 19.5501 19.9005 19.9194 20.4183 20.4288C20.9362 20.9382 21.3522 21.5834 21.6621 22.3687C21.972 23.1541 22.1291 24.0965 22.1291 25.2001V34.3099H22.1376Z" fill="#00B6F3"/>
<path d="M38.5317 19.3336L31.8076 37.1031C31.3067 38.4317 30.653 39.3869 29.8422 39.9727C29.0314 40.5585 28.0678 40.8514 26.9471 40.8514C26.7731 40.8514 26.5863 40.8386 26.3783 40.8132C26.1703 40.7835 25.975 40.7453 25.784 40.6943L24.5402 37.2304C24.8331 37.3662 25.1345 37.4766 25.4444 37.553C25.7543 37.6337 26.0472 37.6676 26.3231 37.6676C26.9089 37.6676 27.4438 37.5361 27.9277 37.2686C28.4116 37.0012 28.7809 36.5045 29.0399 35.7829L29.5578 34.2844L23.7931 19.3336H27.8513L31.2897 28.9527L34.5202 19.3336H38.5317Z" fill="#00B6F3"/>
<path d="M48.5413 33.9703C48.1635 34.2122 47.722 34.3948 47.2211 34.5136C46.7202 34.6367 46.2236 34.6962 45.7226 34.6962C44.8439 34.6962 44.1011 34.59 43.4983 34.3735C42.8955 34.1571 42.4116 33.8259 42.0507 33.3802C41.6899 32.9302 41.4267 32.3614 41.2612 31.6737C41.0956 30.9818 41.015 30.1753 41.015 29.2414V22.6956H39.0495V21.0146C40.2551 20.5137 41.2357 19.7708 41.9871 18.7902C42.7384 17.8054 43.2478 16.5319 43.5237 14.9613H44.7378V19.3293H48.5116V22.6914H44.7378V29.4918C44.7378 29.8696 44.7845 30.1795 44.8821 30.4215C44.9755 30.6634 45.1029 30.8502 45.2557 30.9903C45.4085 31.1261 45.5868 31.2238 45.7863 31.2747C45.9858 31.3256 46.1981 31.3554 46.4188 31.3554C46.7117 31.3554 47.0641 31.3044 47.4801 31.1983C47.8918 31.0964 48.2484 30.9224 48.5413 30.6804V33.9703Z" fill="#00B6F3"/>
<path d="M66.1792 26.8345C66.1792 27.9551 65.9712 28.9952 65.5594 29.9503C65.1434 30.9054 64.5746 31.7332 63.8529 32.4336C63.1313 33.134 62.2781 33.6859 61.306 34.0891C60.3339 34.4967 59.2938 34.6962 58.1901 34.6962C57.0865 34.6962 56.0507 34.4924 55.0871 34.0891C54.1192 33.6859 53.2745 33.1298 52.5528 32.4209C51.8269 31.7162 51.2581 30.8799 50.8463 29.9248C50.4303 28.9654 50.2266 27.9382 50.2266 26.8345C50.2266 25.7477 50.4388 24.7247 50.8591 23.7696C51.2793 22.8145 51.8566 21.9782 52.5783 21.2608C53.3042 20.5434 54.1489 19.9831 55.1125 19.5798C56.0761 19.1765 57.1034 18.9728 58.1901 18.9728C59.2938 18.9728 60.3339 19.1765 61.306 19.5798C62.2781 19.9831 63.1313 20.5349 63.8529 21.2353C64.5788 21.9358 65.1477 22.7678 65.5594 23.7314C65.9712 24.6992 66.1792 25.7308 66.1792 26.8345ZM62.4521 26.8345C62.4521 26.1977 62.3417 25.6034 62.1167 25.0516C61.8918 24.4997 61.5904 24.0158 61.1998 23.5998C60.8135 23.188 60.3636 22.8654 59.8457 22.6319C59.332 22.3985 58.7802 22.2838 58.1944 22.2838C57.6086 22.2838 57.061 22.3985 56.5431 22.6319C56.0294 22.8654 55.5752 23.188 55.1889 23.5998C54.8027 24.0158 54.497 24.4955 54.272 25.0516C54.047 25.6034 53.9367 26.1977 53.9367 26.8345C53.9367 27.4712 54.0513 28.0655 54.272 28.6174C54.4928 29.1692 54.7984 29.6531 55.1889 30.0691C55.5752 30.4809 56.0252 30.8035 56.5431 31.037C57.061 31.2705 57.6086 31.3851 58.1944 31.3851C58.7802 31.3851 59.3278 31.2705 59.8457 31.037C60.3593 30.8035 60.8135 30.4809 61.1998 30.0691C61.5861 29.6531 61.8918 29.1734 62.1167 28.6174C62.3417 28.0698 62.4521 27.4712 62.4521 26.8345Z" fill="#00B6F3"/>
<path d="M81.7455 34.3099H78.0227V33.1722C77.7807 33.4142 77.5005 33.6264 77.1822 33.809C76.8638 33.9915 76.5284 34.1443 76.1719 34.2717C75.8195 34.4033 75.4545 34.5009 75.0852 34.5688C74.7158 34.6367 74.3635 34.6749 74.0366 34.6749C73.2768 34.6749 72.5509 34.5561 71.8505 34.3141C71.1543 34.0722 70.5345 33.7028 69.9997 33.2019C69.4648 32.701 69.0361 32.0558 68.7219 31.262C68.4036 30.4682 68.2422 29.53 68.2422 28.4433V19.3591H71.9651V28.2565C71.9651 28.7914 72.0457 29.2626 72.2113 29.6659C72.3726 30.0734 72.5891 30.4087 72.8565 30.6762C73.124 30.9436 73.4339 31.1389 73.7862 31.2705C74.1385 31.3978 74.5036 31.4615 74.8856 31.4615C76.0912 31.4615 77.1355 31.0497 78.0142 30.222V19.3591H81.737V34.3099H81.7455Z" fill="#00B6F3"/>
<path d="M95.5799 20.9127L93.589 24.0667C93.2282 23.672 92.8249 23.3239 92.3877 23.0225C91.9462 22.7211 91.5047 22.5683 91.0548 22.5683C90.8128 22.5683 90.5496 22.6234 90.2652 22.7381C89.9808 22.8527 89.7133 23.0352 89.4629 23.2942C89.2124 23.5531 89.0002 23.8927 88.8304 24.3172C88.6563 24.7417 88.5714 25.2596 88.5714 25.8836V34.3141H84.8486V19.3591H88.5714V20.9637C89.0172 20.3269 89.5138 19.8345 90.0572 19.4907C90.6005 19.1468 91.2076 18.9728 91.8825 18.9728C92.5362 18.9728 93.1815 19.1511 93.8097 19.5034C94.438 19.8557 95.0281 20.3269 95.5799 20.9127Z" fill="#00B6F3"/>
<path d="M114.321 19.3591L108.71 34.3353H105.038L99.4004 19.3591H103.484L106.872 29.3942L110.259 19.3591H114.321Z" fill="#00B6F3"/>
<path d="M99.2985 32.2935C99.2985 33.4014 98.4028 34.2971 97.2949 34.2971C96.1869 34.2971 95.2912 33.4014 95.2912 32.2935C95.2912 31.1856 96.1869 30.2899 97.2949 30.2899C98.3986 30.2899 99.2985 31.1898 99.2985 32.2935Z" fill="#00B6F3"/>
<path fill-rule="evenodd" clip-rule="evenodd" d="M132.456 18.2002C132.554 17.903 132.643 17.5974 132.757 17.3002C133.445 15.5089 134.23 13.7599 135.232 12.1214C135.894 11.0347 136.574 9.94795 137.333 8.92491C138.382 7.51557 139.558 6.20388 140.954 5.11716C141.553 4.65446 142.173 4.21723 142.784 3.76726C142.826 3.7333 142.86 3.69085 142.869 3.58472C142.788 3.61868 142.695 3.63991 142.623 3.6866C141.502 4.48466 140.356 5.24027 139.278 6.09351C137.444 7.54104 135.737 9.1414 134.235 10.9328C133.33 12.0068 132.507 13.1529 131.7 14.3033C131.297 14.8721 131.013 15.5258 130.652 16.1753C128.224 13.8533 125.371 13.4331 122.141 14.4137C124.03 9.40459 127.213 5.57986 131.785 2.95222C139.133 -1.26304 148.387 -1.06353 155.621 4.19176C162.052 8.86123 165.164 16.7654 164.535 23.5531C161.963 21.8424 159.267 21.49 156.389 22.8357C156.5 20.7302 156.168 18.7223 155.723 16.7272C155.273 14.7193 154.674 12.7581 153.876 10.8564C153.095 9.00132 152.225 7.20144 151.164 5.49496C151.125 5.51619 151.083 5.53741 151.045 5.55864C151.274 6.00012 151.512 6.4331 151.728 6.88307C152.62 8.73813 153.15 10.7036 153.498 12.7242C153.838 14.6896 154.054 16.6677 154.135 18.6586C154.195 20.1401 154.144 21.6174 153.927 23.0861C153.906 23.239 153.889 23.3918 153.868 23.5871C151.159 20.6028 147.933 18.5483 144.024 17.6016C140.127 16.6593 136.298 16.88 132.532 18.2639C132.503 18.2426 132.481 18.2214 132.456 18.2002Z" fill="#00B6F3"/>
<path fill-rule="evenodd" clip-rule="evenodd" d="M141.702 29.0928H141.693C142.381 26.0873 143.073 23.0861 143.752 20.0765C143.777 19.9576 143.718 19.7454 143.637 19.6732C143.111 19.2232 142.508 19.0237 141.833 19.1086C141.651 19.1298 141.557 19.2147 141.519 19.4185C141.421 19.9109 141.324 20.4076 141.213 20.8957C140.581 23.655 139.948 26.4142 139.312 29.1734L139.324 29.1777C138.637 32.1831 137.945 35.1843 137.266 38.194C137.24 38.3129 137.3 38.5251 137.38 38.5973C137.907 39.0473 138.509 39.251 139.184 39.1619C139.367 39.1407 139.46 39.0558 139.498 38.8562C139.596 38.3638 139.694 37.8672 139.804 37.3747C140.428 34.6113 141.065 31.852 141.702 29.0928Z" fill="#00B6F3"/>
<path fill-rule="evenodd" clip-rule="evenodd" d="M154.946 43.4663C154.946 43.4663 137.032 29.5979 115.141 42.3966C115.141 42.3966 114.538 42.9187 115.412 42.9484C115.412 42.9484 134.073 33.5543 154.687 43.9969C154.683 43.9969 155.315 44.0733 154.946 43.4663Z" fill="#00B6F3"/>
<path d="M129.603 33.9533V25.2086C129.603 24.1219 129.438 23.1838 129.111 22.39C128.784 21.5962 128.347 20.9509 127.804 20.45C127.26 19.9491 126.64 19.5798 125.944 19.3378C125.244 19.0959 124.518 18.977 123.758 18.977C123.414 18.977 123.058 19.011 122.684 19.0789C122.315 19.1468 121.95 19.2487 121.597 19.376C121.245 19.5034 120.901 19.6647 120.574 19.8515C120.247 20.0425 119.972 20.2505 119.747 20.4712L119.721 19.3591H115.998V34.3056H119.721V23.4215C120.171 22.9928 120.672 22.6786 121.228 22.4749C121.78 22.2796 122.344 22.1777 122.918 22.1777C123.3 22.1777 123.669 22.2414 124.021 22.373C124.378 22.5003 124.692 22.6999 124.968 22.9673C125.244 23.2347 125.465 23.5701 125.63 23.9734C125.796 24.3809 125.876 24.8478 125.876 25.3827V34.3056C125.881 34.3099 126.997 33.7792 129.603 33.9533Z" fill="#00B6F3"/>
</svg>
