<svg width="52" height="52" viewBox="0 0 52 52" fill="none" xmlns="http://www.w3.org/2000/svg">
<rect x="1" y="4" width="37" height="24" rx="8" fill="#FFDFEE"/>
<rect x="14" y="18" width="31" height="16" rx="5" fill="white"/>
<path d="M3.5 26.5V24.5L13.5 26.5L13 29H11.5L6.5 33L5.5 33.5V28.5L3.5 26.5Z" fill="#FFDFEE"/>
<path d="M42.9388 16.4342H39.1576V12.4057C39.1576 10.0972 38.2891 7.89804 36.7119 6.21362C36.4187 5.9004 35.9271 5.88436 35.6141 6.17757C35.301 6.47078 35.2848 6.96224 35.5781 7.27526C36.8847 8.67083 37.6043 10.4929 37.6043 12.4057V16.4342H21.8C16.8036 16.4342 12.7388 20.4991 12.7388 25.4955V28.274H11.5223C11.0383 28.274 10.5832 28.4625 10.2409 28.8048L6.11863 32.927V28.7802C6.11863 28.1449 5.7785 27.5479 5.23077 27.2223C2.96248 25.8737 1.5533 23.3998 1.5533 20.7662V12.4057C1.5533 8.2658 4.92131 4.89778 9.0612 4.89778H30.0964C31.0668 4.89778 32.0106 5.07988 32.9017 5.43921C33.2995 5.59937 33.7521 5.40701 33.9124 5.00929C34.0728 4.61147 33.8803 4.15891 33.4825 3.99854C32.4061 3.56447 31.2667 3.34448 30.0964 3.34448H9.0612C4.06484 3.34448 0 7.40932 0 12.4057V20.7662C0 23.9449 1.70016 26.9303 4.43696 28.5575C4.51618 28.6046 4.56534 28.6899 4.56534 28.7803V33.3021C4.56534 33.8695 4.90405 34.3764 5.42831 34.5936C5.7782 34.7618 6.49259 34.7376 6.95185 34.2907L11.3391 29.9033C11.3881 29.8543 11.4531 29.8274 11.5223 29.8274H12.7388V33.8559C12.7388 35.0789 12.9785 36.2657 13.4511 37.3833C13.6182 37.7782 14.0739 37.9628 14.469 37.796C14.8641 37.6289 15.0488 37.1732 14.8819 36.7781C14.4906 35.8531 14.2922 34.87 14.2922 33.856V25.4956C14.2922 21.3556 17.6602 17.9876 21.8001 17.9876H42.9388C47.0787 17.9876 50.4467 21.3556 50.4467 25.4956V33.856C50.4467 36.4999 49.0948 38.8996 46.8303 40.2754C46.2966 40.5996 45.965 41.1914 45.965 41.8197V46.8852L40.9744 41.8946C40.6321 41.5523 40.177 41.3638 39.693 41.3638H21.8C19.9159 41.3638 18.1143 40.663 16.7268 39.3906C16.4108 39.1009 15.9195 39.122 15.6295 39.4381C15.3395 39.7542 15.3607 40.2455 15.6769 40.5355C17.3515 42.0714 19.526 42.9172 21.7999 42.9172H39.6928C39.7609 42.9172 39.8276 42.9448 39.8758 42.9931L45.1315 48.2488C45.5374 48.5607 45.9341 48.8018 46.655 48.5518C47.1792 48.3345 47.5179 47.8276 47.5179 47.2602V41.8196C47.5179 41.7303 47.5634 41.6472 47.6366 41.6028C50.3689 39.9429 52 37.047 52 33.8559V25.4955C52 20.4991 47.9352 16.4342 42.9388 16.4342Z" fill="#473C41"/>
<path d="M30.1772 34.9565C29.7218 34.313 28.8921 33.8816 27.9459 33.8816C26.5111 33.8816 25.344 34.8733 25.344 36.0924C25.344 37.3114 26.5112 38.3031 27.9459 38.3031C29.2049 38.3031 30.2576 37.5395 30.4967 36.5287C31.6424 36.0462 32.5442 35.0847 32.9357 33.8683C34.0699 33.61 34.9193 32.594 34.9193 31.3825V28.582C34.9193 27.4125 34.1277 26.4251 33.0524 26.1257C32.7993 24.5658 32.0327 23.1344 30.8575 22.0527C29.5462 20.8456 27.842 20.1809 26.0588 20.1809C22.5497 20.1809 19.6146 22.7085 19.0645 26.1258C17.9895 26.4254 17.1982 27.4127 17.1982 28.5819V31.3824C17.1982 32.7885 18.3421 33.9324 19.7482 33.9324C21.1542 33.9324 22.2981 32.7885 22.2981 31.3824V28.5819C22.2981 27.4855 21.6025 26.5486 20.6295 26.189C21.1331 23.616 23.3824 21.7342 26.0588 21.7342C28.7012 21.7342 30.9789 23.6489 31.486 26.1899C30.514 26.5499 29.8194 27.4862 29.8194 28.5819V31.3824C29.8194 32.4188 30.4412 33.3121 31.3311 33.7106C31.0842 34.2411 30.678 34.6745 30.1772 34.9565ZM27.9459 36.7499C27.3279 36.7499 26.8973 36.4035 26.8973 36.0925C26.8973 35.7815 27.3279 35.435 27.9459 35.435C28.5639 35.435 28.9946 35.7815 28.9946 36.0925C28.9946 36.4035 28.5638 36.7499 27.9459 36.7499ZM20.7448 31.3826C20.7448 31.9322 20.2977 32.3793 19.7482 32.3793C19.1986 32.3793 18.7515 31.9322 18.7515 31.3826V28.5821C18.7515 28.0325 19.1986 27.5854 19.7482 27.5854C20.2977 27.5854 20.7448 28.0325 20.7448 28.5821V31.3826ZM31.3727 28.5821C31.3727 28.0325 31.8198 27.5854 32.3693 27.5854C32.9189 27.5854 33.366 28.0325 33.366 28.5821V31.3826C33.366 31.9322 32.9189 32.3793 32.3693 32.3793C31.8198 32.3793 31.3727 31.9322 31.3727 31.3826V28.5821Z" fill="#473C41"/>
<path d="M36.9374 24.5823H43.1237C43.5526 24.5823 43.9003 24.2347 43.9003 23.8057C43.9003 23.3767 43.5526 23.0291 43.1237 23.0291H36.9374C36.5085 23.0291 36.1608 23.3767 36.1608 23.8057C36.1608 24.2347 36.5085 24.5823 36.9374 24.5823Z" fill="#FF1284"/>
<path d="M36.9374 28.0594H41.7075C42.1364 28.0594 42.4841 27.7118 42.4841 27.2828C42.4841 26.8538 42.1364 26.5061 41.7075 26.5061H36.9374C36.5085 26.5061 36.1608 26.8538 36.1608 27.2828C36.1608 27.7118 36.5085 28.0594 36.9374 28.0594Z" fill="#FF1284"/>
<path d="M7.64082 14.661C8.28032 14.661 8.79874 14.1426 8.79874 13.5031C8.79874 12.8636 8.28032 12.3452 7.64082 12.3452C7.00133 12.3452 6.48291 12.8636 6.48291 13.5031C6.48291 14.1426 7.00133 14.661 7.64082 14.661Z" fill="#473C41"/>
<path d="M11.1478 14.661C11.7873 14.661 12.3057 14.1426 12.3057 13.5031C12.3057 12.8636 11.7873 12.3452 11.1478 12.3452C10.5083 12.3452 9.98987 12.8636 9.98987 13.5031C9.98987 14.1426 10.5083 14.661 11.1478 14.661Z" fill="#473C41"/>
<path d="M14.6341 14.661C15.2736 14.661 15.792 14.1426 15.792 13.5031C15.792 12.8636 15.2736 12.3452 14.6341 12.3452C13.9946 12.3452 13.4762 12.8636 13.4762 13.5031C13.4762 14.1426 13.9946 14.661 14.6341 14.661Z" fill="#473C41"/>
</svg>
