<svg width="16" height="16" viewBox="0 0 16 16" fill="none" xmlns="http://www.w3.org/2000/svg">
<g clip-path="url(#clip0)">
<path d="M8 16C12.4183 16 16 12.4183 16 8C16 3.58172 12.4183 0 8 0C3.58172 0 0 3.58172 0 8C0 12.4183 3.58172 16 8 16Z" fill="#34E0A1"/>
<path d="M12.9406 6.43873L13.9063 5.38812H11.7656C10.6562 4.63308 9.34524 4.22931 8.00325 4.22931C6.66127 4.22931 5.35033 4.63308 4.2409 5.38812H2.0946L3.06033 6.43873C2.77443 6.70083 2.54301 7.01672 2.37929 7.36833C2.21557 7.71994 2.12277 8.10037 2.10619 8.48788C2.08961 8.87538 2.14958 9.26235 2.28268 9.62666C2.41577 9.99097 2.61937 10.3255 2.88184 10.611C3.1443 10.8966 3.46049 11.1276 3.81231 11.2909C4.16413 11.4542 4.54468 11.5465 4.93221 11.5626C5.31973 11.5786 5.70663 11.5182 6.07077 11.3846C6.43491 11.2511 6.76915 11.047 7.05437 10.7842L8.00053 11.8136L8.94601 10.7849C9.49088 11.291 10.2073 11.5718 10.9509 11.5708C12.5808 11.5708 13.9032 10.2496 13.9032 8.61972C13.9037 8.20915 13.8183 7.80302 13.6526 7.42741C13.4868 7.05181 13.2442 6.71503 12.9406 6.43873ZM5.04876 10.6168C4.65377 10.6168 4.26765 10.4997 3.93923 10.2802C3.6108 10.0608 3.35483 9.7489 3.20367 9.38398C3.05252 9.01905 3.01297 8.6175 3.09003 8.2301C3.16709 7.8427 3.35729 7.48685 3.63659 7.20755C3.91589 6.92825 4.27174 6.73805 4.65914 6.66099C5.04655 6.58393 5.4481 6.62348 5.81302 6.77464C6.17794 6.92579 6.48985 7.18177 6.70929 7.51019C6.92874 7.83861 7.04587 8.22473 7.04587 8.61972C7.04587 8.88198 6.99421 9.14168 6.89385 9.38398C6.79348 9.62628 6.64638 9.84644 6.46093 10.0319C6.27548 10.2173 6.05532 10.3644 5.81302 10.4648C5.57072 10.5652 5.31102 10.6168 5.04876 10.6168ZM8.00053 8.56222C8.00053 7.24794 7.04451 6.12028 5.78381 5.63801C6.48614 5.34543 7.23944 5.1948 8.00028 5.1948C8.76111 5.1948 9.51442 5.34543 10.2167 5.63801C8.95622 6.12045 8.00053 7.24811 8.00053 8.56222ZM10.9509 10.6168C10.556 10.6168 10.1698 10.4997 9.84141 10.2802C9.51299 10.0608 9.25702 9.7489 9.10586 9.38398C8.9547 9.01905 8.91515 8.6175 8.99221 8.2301C9.06927 7.8427 9.25948 7.48685 9.53878 7.20755C9.81808 6.92825 10.1739 6.73805 10.5613 6.66099C10.9487 6.58393 11.3503 6.62348 11.7152 6.77464C12.0801 6.92579 12.392 7.18177 12.6115 7.51019C12.8309 7.83861 12.9481 8.22473 12.9481 8.61972C12.9481 9.14938 12.7376 9.65736 12.3631 10.0319C11.9886 10.4064 11.4806 10.6168 10.9509 10.6168ZM10.9509 7.57286C10.7439 7.57286 10.5414 7.63427 10.3692 7.74933C10.197 7.86438 10.0628 8.02792 9.98359 8.21925C9.90435 8.41058 9.88363 8.62111 9.92404 8.82422C9.96446 9.02733 10.0642 9.21389 10.2106 9.36031C10.3571 9.50674 10.5437 9.60644 10.7468 9.64682C10.9499 9.68721 11.1604 9.66645 11.3517 9.58717C11.5431 9.5079 11.7066 9.37367 11.8216 9.20147C11.9366 9.02926 11.998 8.82681 11.998 8.61972C11.998 8.48223 11.9709 8.34609 11.9183 8.21906C11.8657 8.09204 11.7885 7.97663 11.6913 7.87941C11.5941 7.7822 11.4786 7.70509 11.3516 7.65249C11.2246 7.59989 11.0884 7.57283 10.9509 7.57286ZM6.0958 8.61972C6.09583 8.82681 6.03445 9.02926 5.91942 9.20147C5.80439 9.37367 5.64088 9.5079 5.44956 9.58717C5.25824 9.66645 5.04771 9.68721 4.8446 9.64682C4.64148 9.60644 4.4549 9.50674 4.30845 9.36031C4.16201 9.21389 4.06227 9.02733 4.02186 8.82422C3.98144 8.62111 4.00217 8.41058 4.08141 8.21925C4.16065 8.02792 4.29485 7.86438 4.46704 7.74933C4.63923 7.63427 4.84167 7.57286 5.04876 7.57286C5.32642 7.57286 5.59271 7.68314 5.78907 7.87946C5.98542 8.07578 6.09575 8.34206 6.0958 8.61972Z" fill="black"/>
</g>
<defs>
<clipPath id="clip0">
<rect width="16" height="16" fill="white"/>
</clipPath>
</defs>
</svg>
