<svg width="42" height="50" viewBox="0 0 42 50" fill="none" xmlns="http://www.w3.org/2000/svg">
<rect width="42" height="50" rx="4" fill="url(#paint0_linear)"/>
<circle opacity="0.5" cx="21.5" cy="18.5" r="15.5" fill="url(#paint1_linear)"/>
<g clip-path="url(#clip0)">
<path d="M18.5068 31.9676C19.3031 32.5896 19.5119 33.6263 19.5119 33.6263C19.5119 33.6263 18.4285 33.6523 17.6323 33.0302C16.836 32.4082 16.6272 31.3715 16.6272 31.3715C16.6272 31.3715 17.7106 31.3456 18.5068 31.9676Z" fill="white"/>
<path d="M17.5409 33.5876C18.5068 33.2506 19.5119 33.6264 19.5119 33.6264C19.5119 33.6264 18.9636 34.5336 17.9977 34.8705C17.0318 35.2074 16.0267 34.8316 16.0267 34.8316C16.0267 34.8316 16.575 33.9115 17.5409 33.5876Z" fill="white"/>
<path d="M15.4003 31.1253C16.1052 31.851 16.1704 32.9007 16.1704 32.9007C16.1704 32.9007 15.1001 32.784 14.3952 32.0583C13.6904 31.3326 13.6251 30.283 13.6251 30.283C13.6251 30.283 14.6955 30.3996 15.4003 31.1253Z" fill="white"/>
<path d="M14.2125 32.6026C15.2176 32.4082 16.1574 32.9006 16.1574 32.9006C16.1574 32.9006 15.4917 33.73 14.4866 33.9244C13.4816 34.1187 12.5417 33.6263 12.5417 33.6263C12.5417 33.6263 13.2074 32.7969 14.2125 32.6026Z" fill="white"/>
<path d="M12.9464 29.9201C13.5208 30.7495 13.4163 31.7992 13.4163 31.7992C13.4163 31.7992 12.3721 31.5141 11.7978 30.6977C11.2234 29.8683 11.3279 28.8186 11.3279 28.8186C11.3279 28.8186 12.3721 29.1037 12.9464 29.9201Z" fill="white"/>
<path d="M11.5366 31.1902C12.5548 31.1513 13.4163 31.7863 13.4163 31.7863C13.4163 31.7863 12.62 32.499 11.6019 32.5379C10.5838 32.5768 9.72229 31.9418 9.72229 31.9418C9.72229 31.9418 10.5185 31.242 11.5366 31.1902Z" fill="white"/>
<path d="M10.6621 28.093C11.0145 29.0261 10.6491 30.0239 10.6491 30.0239C10.6491 30.0239 9.70924 29.5055 9.35681 28.5725C9.00438 27.6394 9.36987 26.6416 9.36987 26.6416C9.36987 26.6416 10.3097 27.16 10.6621 28.093Z" fill="white"/>
<path d="M8.97834 28.9871C9.98341 29.1944 10.6491 30.0108 10.6491 30.0108C10.6491 30.0108 9.69625 30.5162 8.70422 30.3089C7.69915 30.1015 7.03345 29.2851 7.03345 29.2851C7.03345 29.2851 7.98631 28.7927 8.97834 28.9871Z" fill="white"/>
<path d="M8.92613 25.9677C9.04361 26.9525 8.45623 27.8338 8.45623 27.8338C8.45623 27.8338 7.67305 27.1081 7.55557 26.1232C7.4381 25.1383 8.02548 24.2571 8.02548 24.2571C8.02548 24.2571 8.80866 24.9828 8.92613 25.9677Z" fill="white"/>
<path d="M7.08562 26.4601C8.01238 26.8877 8.45618 27.8467 8.45618 27.8467C8.45618 27.8467 7.41194 28.1188 6.48518 27.6912C5.55842 27.2635 5.11462 26.3046 5.11462 26.3046C5.11462 26.3046 6.15886 26.0324 7.08562 26.4601Z" fill="white"/>
<path d="M7.45107 23.298C7.35969 24.2958 6.60262 25.0345 6.60262 25.0345C6.60262 25.0345 5.97608 24.1662 6.06745 23.1813C6.15882 22.1835 6.91589 21.4448 6.91589 21.4448C6.91589 21.4448 7.54244 22.3001 7.45107 23.298Z" fill="white"/>
<path d="M5.54526 23.4147C6.3676 24.0108 6.6156 25.0346 6.6156 25.0346C6.6156 25.0346 5.53221 25.0994 4.72293 24.5033C3.90059 23.9072 3.65259 22.8834 3.65259 22.8834C3.65259 22.8834 4.72293 22.8186 5.54526 23.4147Z" fill="white"/>
<path d="M6.69392 20.758C6.44592 21.7299 5.57137 22.352 5.57137 22.352C5.57137 22.352 5.10146 21.406 5.33642 20.434C5.58442 19.4621 6.45897 18.8401 6.45897 18.8401C6.45897 18.8401 6.94193 19.7861 6.69392 20.758Z" fill="white"/>
<path d="M4.78825 20.5767C5.50616 21.2894 5.58448 22.3391 5.58448 22.3391C5.58448 22.3391 4.51414 22.2354 3.79623 21.5227C3.07832 20.8099 3 19.7603 3 19.7603C3 19.7603 4.07034 19.8639 4.78825 20.5767Z" fill="white"/>
<path d="M6.61571 17.9201C6.13275 18.8013 5.14073 19.2031 5.14073 19.2031C5.14073 19.2031 4.91883 18.1663 5.38873 17.2851C5.87169 16.4039 6.86372 16.0022 6.86372 16.0022C6.86372 16.0022 7.08562 17.0389 6.61571 17.9201Z" fill="white"/>
<path d="M4.8013 17.285C5.31036 18.1533 5.12762 19.19 5.12762 19.19C5.12762 19.19 4.10949 18.8272 3.60043 17.9719C3.09136 17.1036 3.2741 16.0669 3.2741 16.0669C3.2741 16.0669 4.29223 16.4297 4.8013 17.285Z" fill="white"/>
<path d="M7.1247 15.0559C6.44595 15.8076 5.37561 15.9631 5.37561 15.9631C5.37561 15.9631 5.40172 14.9134 6.08047 14.1618C6.75922 13.4101 7.82956 13.2546 7.82956 13.2546C7.82956 13.2546 7.7904 14.3043 7.1247 15.0559Z" fill="white"/>
<path d="M5.51922 14.0323C5.80639 14.9913 5.37564 15.9503 5.37564 15.9503C5.37564 15.9503 4.47499 15.3671 4.18782 14.4211C3.90066 13.4621 4.33141 12.5032 4.33141 12.5032C4.33141 12.5032 5.21901 13.0734 5.51922 14.0323Z" fill="white"/>
<path d="M8.16891 12.6976C7.33352 13.2678 6.26318 13.1901 6.26318 13.1901C6.26318 13.1901 6.5373 12.1663 7.37268 11.5961C8.20807 11.0259 9.27841 11.1037 9.27841 11.1037C9.27841 11.1037 8.99125 12.1145 8.16891 12.6976Z" fill="white"/>
<path d="M6.83754 11.3369C6.90281 12.3347 6.25016 13.1771 6.25016 13.1771C6.25016 13.1771 5.50614 12.4125 5.45393 11.4146C5.38866 10.4168 6.04131 9.57446 6.04131 9.57446C6.04131 9.57446 6.78533 10.352 6.83754 11.3369Z" fill="white"/>
<path d="M9.4743 10.5595C8.56059 11.0001 7.51636 10.7538 7.51636 10.7538C7.51636 10.7538 7.9471 9.79488 8.87386 9.35428C9.78757 8.91367 10.8318 9.15989 10.8318 9.15989C10.8318 9.15989 10.388 10.1189 9.4743 10.5595Z" fill="white"/>
<path d="M8.37788 9.03015C8.27345 10.028 7.50333 10.7537 7.50333 10.7537C7.50333 10.7537 6.88984 9.88544 6.99426 8.8876C7.09869 7.88976 7.86881 7.16406 7.86881 7.16406C7.86881 7.16406 8.4823 8.03231 8.37788 9.03015Z" fill="white"/>
<path d="M24.0413 31.825C23.2451 32.4471 23.0363 33.4838 23.0363 33.4838C23.0363 33.4838 24.1196 33.5097 24.9159 32.8877C25.7121 32.2656 25.921 31.2289 25.921 31.2289C25.921 31.2289 24.8376 31.203 24.0413 31.825Z" fill="white"/>
<path d="M25.0072 33.445C24.0413 33.108 23.0363 33.4839 23.0363 33.4839C23.0363 33.4839 23.5845 34.391 24.5504 34.7279C25.5163 35.0649 26.5214 34.689 26.5214 34.689C26.5214 34.689 25.9732 33.7819 25.0072 33.445Z" fill="white"/>
<path d="M26.7563 31.125C26.0515 31.8507 25.9862 32.9004 25.9862 32.9004C25.9862 32.9004 27.0565 32.7838 27.7614 32.0581C28.4663 31.3324 28.5315 30.2827 28.5315 30.2827C28.5315 30.2827 27.4612 30.3993 26.7563 31.125Z" fill="white"/>
<path d="M27.9442 32.6026C26.9391 32.4082 25.9993 32.9006 25.9993 32.9006C25.9993 32.9006 26.665 33.73 27.67 33.9244C28.6751 34.1187 29.6149 33.6263 29.6149 33.6263C29.6149 33.6263 28.9362 32.7969 27.9442 32.6026Z" fill="white"/>
<path d="M29.1972 29.8293C28.6228 30.6587 28.7273 31.7083 28.7273 31.7083C28.7273 31.7083 29.7715 31.4232 30.3458 30.6068C30.9202 29.7775 30.8158 28.7278 30.8158 28.7278C30.8158 28.7278 29.7846 28.9999 29.1972 29.8293Z" fill="white"/>
<path d="M30.6069 31.0991C29.5888 31.0603 28.7273 31.6952 28.7273 31.6952C28.7273 31.6952 29.5235 32.408 30.5417 32.4469C31.5598 32.4857 32.4213 31.8507 32.4213 31.8507C32.4213 31.8507 31.625 31.138 30.6069 31.0991Z" fill="white"/>
<path d="M31.4163 28.041C31.0638 28.974 31.4293 29.9719 31.4293 29.9719C31.4293 29.9719 32.3691 29.4535 32.7216 28.5205C33.074 27.5874 32.7085 26.5896 32.7085 26.5896C32.7085 26.5896 31.7687 27.108 31.4163 28.041Z" fill="white"/>
<path d="M33.087 28.9351C32.082 29.1424 31.4163 29.9588 31.4163 29.9588C31.4163 29.9588 32.3691 30.4642 33.3611 30.2569C34.3532 30.0495 35.0319 29.2331 35.0319 29.2331C35.0319 29.2331 34.0921 28.7407 33.087 28.9351Z" fill="white"/>
<path d="M33.2306 25.7731C33.1131 26.758 33.7005 27.6392 33.7005 27.6392C33.7005 27.6392 34.4837 26.9135 34.6012 25.9286C34.7186 24.9437 34.1313 24.0625 34.1313 24.0625C34.1313 24.0625 33.3612 24.7882 33.2306 25.7731Z" fill="white"/>
<path d="M35.0841 26.2655C34.1573 26.6932 33.7135 27.6521 33.7135 27.6521C33.7135 27.6521 34.7577 27.9243 35.6845 27.4966C36.6113 27.069 37.0551 26.11 37.0551 26.11C37.0551 26.11 36.0108 25.8379 35.0841 26.2655Z" fill="white"/>
<path d="M34.5489 23.2464C34.6403 24.2443 35.3973 24.9829 35.3973 24.9829C35.3973 24.9829 36.0239 24.1147 35.9325 23.1298C35.8411 22.132 35.0841 21.3933 35.0841 21.3933C35.0841 21.3933 34.4575 22.2616 34.5489 23.2464Z" fill="white"/>
<path d="M36.4546 23.3759C35.6323 23.972 35.3843 24.9958 35.3843 24.9958C35.3843 24.9958 36.4677 25.0606 37.277 24.4645C38.0993 23.8684 38.3473 22.8446 38.3473 22.8446C38.3473 22.8446 37.277 22.7798 36.4546 23.3759Z" fill="white"/>
<path d="M35.3059 20.6936C35.5539 21.6655 36.4285 22.2875 36.4285 22.2875C36.4285 22.2875 36.8984 21.3415 36.6634 20.3696C36.4154 19.3977 35.5409 18.7756 35.5409 18.7756C35.5409 18.7756 35.0579 19.7346 35.3059 20.6936Z" fill="white"/>
<path d="M37.2116 20.5249C36.5068 21.2377 36.4154 22.2873 36.4154 22.2873C36.4154 22.2873 37.4857 22.1837 38.2037 21.4709C38.9216 20.7582 38.9999 19.7085 38.9999 19.7085C38.9999 19.7085 37.9295 19.8122 37.2116 20.5249Z" fill="white"/>
<path d="M35.3713 17.9589C35.8542 18.8402 36.8463 19.2419 36.8463 19.2419C36.8463 19.2419 37.0682 18.2052 36.5983 17.324C36.1153 16.4427 35.1233 16.041 35.1233 16.041C35.1233 16.041 34.9014 17.0777 35.3713 17.9589Z" fill="white"/>
<path d="M37.1856 17.337C36.6766 18.2053 36.8593 19.242 36.8593 19.242C36.8593 19.242 37.8774 18.8792 38.3865 18.0239C38.8956 17.1556 38.7128 16.1189 38.7128 16.1189C38.7128 16.1189 37.6947 16.4688 37.1856 17.337Z" fill="white"/>
<path d="M34.8361 15.0952C35.5148 15.8469 36.5852 16.0024 36.5852 16.0024C36.5852 16.0024 36.5591 14.9527 35.8803 14.2011C35.2016 13.4495 34.1312 13.2939 34.1312 13.2939C34.1312 13.2939 34.1704 14.3436 34.8361 15.0952Z" fill="white"/>
<path d="M36.4416 14.0714C36.1544 15.0304 36.5852 15.9893 36.5852 15.9893C36.5852 15.9893 37.4858 15.4062 37.773 14.4472C38.0602 13.4883 37.6294 12.5293 37.6294 12.5293C37.6294 12.5293 36.7418 13.1125 36.4416 14.0714Z" fill="white"/>
<path d="M33.8311 12.7755C34.6664 13.3457 35.7368 13.2679 35.7368 13.2679C35.7368 13.2679 35.4627 12.2442 34.6273 11.674C33.7919 11.1038 32.7216 11.1815 32.7216 11.1815C32.7216 11.1815 32.9957 12.1923 33.8311 12.7755Z" fill="white"/>
<path d="M35.1494 11.4277C35.0841 12.4255 35.7367 13.2679 35.7367 13.2679C35.7367 13.2679 36.4808 12.5033 36.533 11.5055C36.5982 10.5076 35.9456 9.66528 35.9456 9.66528C35.9456 9.66528 35.2146 10.4299 35.1494 11.4277Z" fill="white"/>
<path d="M32.4475 10.663C33.3612 11.1036 34.4054 10.8574 34.4054 10.8574C34.4054 10.8574 33.9747 9.8984 33.0479 9.45779C32.1342 9.01719 31.09 9.26341 31.09 9.26341C31.09 9.26341 31.5338 10.2224 32.4475 10.663Z" fill="white"/>
<path d="M33.5308 9.12097C33.6352 10.1188 34.4053 10.8445 34.4053 10.8445C34.4053 10.8445 35.0188 9.97626 34.9144 8.97842C34.8099 7.98058 34.0398 7.25488 34.0398 7.25488C34.0398 7.25488 33.4263 8.12313 33.5308 9.12097Z" fill="white"/>
<path d="M31.7034 7.61768C31.6642 7.65655 31.612 7.70839 31.5598 7.74727C31.5467 7.76022 31.5337 7.77318 31.5076 7.77318C34.7055 10.4816 36.7287 14.3952 36.7287 18.7365C36.7287 26.8747 29.6671 33.5097 20.9739 33.5097C12.2937 33.5097 5.21896 26.8877 5.21896 18.7365C5.23201 14.5896 7.07248 10.8315 10.0224 8.13603C9.94412 8.11012 9.85275 8.0842 9.77444 8.03236C6.81142 10.7537 4.98401 14.5507 4.98401 18.7365C4.98401 27.0043 12.1631 33.7429 20.9869 33.7429C29.8107 33.7429 36.9898 27.0172 36.9898 18.7365C36.9898 14.3304 34.9405 10.365 31.7034 7.61768Z" fill="white"/>
<path d="M11.5888 8.68039C10.5968 8.88773 9.63086 8.39529 9.63086 8.39529C9.63086 8.39529 10.2966 7.56591 11.2886 7.35857C12.2806 7.15123 13.2465 7.64367 13.2465 7.64367C13.2465 7.64367 12.5939 8.47304 11.5888 8.68039Z" fill="white"/>
<path d="M10.9231 6.93089C10.5837 7.86393 9.6439 8.39525 9.6439 8.39525C9.6439 8.39525 9.26536 7.41037 9.61779 6.46436C9.95717 5.53132 10.8839 5 10.8839 5C10.8839 5 11.2625 5.98488 10.9231 6.93089Z" fill="white"/>
<path d="M30.4373 8.68039C31.4293 8.88773 32.3952 8.39529 32.3952 8.39529C32.3952 8.39529 31.7295 7.56591 30.7375 7.35857C29.7455 7.15123 28.7795 7.64367 28.7795 7.64367C28.7795 7.64367 29.4322 8.47304 30.4373 8.68039Z" fill="white"/>
<path d="M31.103 6.93089C31.4424 7.86393 32.3822 8.39525 32.3822 8.39525C32.3822 8.39525 32.7607 7.41037 32.4083 6.46436C32.0689 5.53132 31.1421 5 31.1421 5C31.1421 5 30.7636 5.98488 31.103 6.93089Z" fill="white"/>
</g>
<path fill-rule="evenodd" clip-rule="evenodd" d="M18.0533 17.4451C18.0927 17.3235 18.1285 17.1985 18.1747 17.0769C18.4516 16.344 18.7678 15.6285 19.1712 14.9582C19.4378 14.5136 19.7113 14.069 20.0172 13.6505C20.4394 13.0739 20.9128 12.5373 21.4752 12.0927C21.7161 11.9034 21.9657 11.7245 22.2118 11.5404C22.2289 11.5266 22.2426 11.5092 22.246 11.4658C22.2135 11.4797 22.1759 11.4883 22.1469 11.5075C21.6956 11.8339 21.2342 12.1431 20.8 12.4921C20.0616 13.0843 19.3746 13.7391 18.7695 14.4719C18.4054 14.9113 18.0739 15.3802 17.7491 15.8508C17.5867 16.0835 17.4722 16.351 17.3269 16.6167C16.3493 15.6667 15.2007 15.4948 13.9 15.896C14.6606 13.8467 15.9425 12.282 17.7833 11.207C20.7402 9.48251 24.4645 9.56587 27.3787 11.7159C29.9681 13.6262 31.221 16.8598 30.968 19.6367C29.9323 18.9369 28.8469 18.7927 27.6881 19.3432C27.7325 18.4819 27.5992 17.6604 27.4197 16.8442C27.2386 16.0228 26.9976 15.2204 26.6762 14.4424C26.3617 13.6835 26.0114 12.9471 25.5841 12.249C25.5687 12.2577 25.5516 12.2664 25.5362 12.2751C25.6285 12.4557 25.7242 12.6328 25.8114 12.8169C26.1703 13.5758 26.384 14.3799 26.5241 15.2065C26.6609 16.0106 26.748 16.8199 26.7805 17.6344C26.8044 18.2405 26.7839 18.8448 26.6967 19.4457C26.6882 19.5082 26.6814 19.5707 26.6728 19.6506C25.5823 18.4298 24.2834 17.5892 22.7092 17.2019C21.1402 16.8164 19.5985 16.9067 18.0824 17.4729C18.0721 17.4624 18.0619 17.4538 18.0533 17.4451Z" fill="white"/>
<path fill-rule="evenodd" clip-rule="evenodd" d="M21.776 21.9013H21.7726C22.0494 20.6718 22.328 19.444 22.6015 18.2127C22.6118 18.1641 22.5878 18.0772 22.5554 18.0477C22.3434 17.8636 22.1007 17.782 21.829 17.8167C21.7555 17.8254 21.7179 17.8601 21.7025 17.9435C21.6632 18.145 21.6239 18.3481 21.5794 18.5479C21.3247 19.6767 21.0701 20.8055 20.8137 21.9343L20.8188 21.9361C20.5419 23.1656 20.2633 24.3934 19.9899 25.6247C19.9796 25.6734 20.0035 25.7602 20.036 25.7897C20.248 25.9738 20.4907 26.0572 20.7624 26.0207C20.8359 26.012 20.8735 25.9773 20.8889 25.8956C20.9282 25.6942 20.9675 25.491 21.012 25.2896C21.2632 24.159 21.5179 23.0302 21.776 21.9013Z" fill="white"/>
<path fill-rule="evenodd" clip-rule="evenodd" d="M27.1087 27.7817C27.1087 27.7817 19.8959 22.108 11.0815 27.344C11.0815 27.344 10.8388 27.5576 11.1909 27.5698C11.1909 27.5698 18.7045 23.7266 27.0044 27.9987C27.0027 27.9987 27.2556 28.03 27.1087 27.7817Z" fill="white"/>
<path d="M9.07844 44.3254H13.882V43.2041H10.9473V43.0979L12.1793 41.949C13.3929 40.8277 13.7851 40.2001 13.7851 39.4434V39.4295C13.7851 38.2805 12.8253 37.4961 11.4548 37.4961C9.9967 37.4961 9 38.3728 9 39.651L9.00461 39.6695H10.292V39.6464C10.292 39.0142 10.7396 38.5805 11.3902 38.5805C12.027 38.5805 12.4146 38.9773 12.4146 39.5449V39.5587C12.4146 40.0248 12.1608 40.3616 11.2241 41.2706L9.07844 43.3886V44.3254Z" fill="white"/>
<path d="M17.7212 44.4961C19.3685 44.4961 20.3652 43.1487 20.3652 40.9984V40.9892C20.3652 38.8343 19.3685 37.4961 17.7212 37.4961C16.0784 37.4961 15.0771 38.8343 15.0771 40.9892V40.9984C15.0771 43.1487 16.0784 44.4961 17.7212 44.4961ZM17.7212 43.3933C16.9367 43.3933 16.4891 42.5027 16.4891 40.9984V40.9892C16.4891 39.4803 16.9367 38.5989 17.7212 38.5989C18.5102 38.5989 18.9578 39.4803 18.9578 40.9892V40.9984C18.9578 42.5027 18.5102 43.3933 17.7212 43.3933Z" fill="white"/>
<path d="M21.6295 44.3254H26.4331V43.2041H23.4984V43.0979L24.7304 41.949C25.944 40.8277 26.3362 40.2001 26.3362 39.4434V39.4295C26.3362 38.2805 25.3764 37.4961 24.0059 37.4961C22.5478 37.4961 21.5511 38.3728 21.5511 39.651L21.5557 39.6695H22.8431V39.6464C22.8431 39.0142 23.2907 38.5805 23.9413 38.5805C24.5781 38.5805 24.9657 38.9773 24.9657 39.5449V39.5587C24.9657 40.0248 24.7119 40.3616 23.7752 41.2706L21.6295 43.3886V44.3254Z" fill="white"/>
<path d="M30.2722 44.4961C31.9196 44.4961 32.9163 43.1487 32.9163 40.9984V40.9892C32.9163 38.8343 31.9196 37.4961 30.2722 37.4961C28.6295 37.4961 27.6282 38.8343 27.6282 40.9892V40.9984C27.6282 43.1487 28.6295 44.4961 30.2722 44.4961ZM30.2722 43.3933C29.4878 43.3933 29.0402 42.5027 29.0402 40.9984V40.9892C29.0402 39.4803 29.4878 38.5989 30.2722 38.5989C31.0613 38.5989 31.5089 39.4803 31.5089 40.9892V40.9984C31.5089 42.5027 31.0613 43.3933 30.2722 43.3933Z" fill="white"/>
<defs>
<linearGradient id="paint0_linear" x1="21" y1="0" x2="21" y2="50" gradientUnits="userSpaceOnUse">
<stop stop-color="#FF9839"/>
<stop offset="1" stop-color="#FFBC39"/>
</linearGradient>
<linearGradient id="paint1_linear" x1="21.5" y1="3" x2="21.5" y2="34" gradientUnits="userSpaceOnUse">
<stop stop-color="#D28428" stop-opacity="0"/>
<stop offset="1" stop-color="#D28428"/>
</linearGradient>
<clipPath id="clip0">
<rect width="36" height="30" fill="white" transform="translate(3 5)"/>
</clipPath>
</defs>
</svg>
