<svg width="52" height="52" viewBox="0 0 52 52" fill="none" xmlns="http://www.w3.org/2000/svg">
<g clip-path="url(#clip0)">
<path d="M11.375 26.5417H48.75L49.8334 36.8334H10.8334L11.375 26.5417Z" fill="#FFDFEE"/>
<path d="M3.92444 28.3031C3.15955 27.5382 3.15955 26.2936 3.92444 25.5291L22.5902 6.86342C22.8877 6.56587 22.8877 6.08345 22.5902 5.7863C22.2926 5.48835 21.8102 5.48875 21.513 5.7863L2.84693 24.452C1.48852 25.8104 1.48852 28.0214 2.84693 29.3802L7.54856 34.0814C7.69694 34.2298 7.89213 34.3044 8.08693 34.3044C8.28212 34.3044 8.47691 34.2302 8.62568 34.0814C8.92323 33.7839 8.92323 33.3015 8.62568 33.0043L3.92444 28.3031Z" fill="#473C41"/>
<path d="M18.8987 15.0681L7.37209 26.5946C7.07454 26.8922 7.07454 27.3746 7.37209 27.6722C7.52086 27.8205 7.71565 27.8951 7.91084 27.8951C8.10564 27.8951 8.30043 27.8209 8.44921 27.6722L19.9758 16.1456C20.2733 15.848 20.2733 15.3656 19.9758 15.0681C19.6786 14.7709 19.1962 14.7709 18.8987 15.0681Z" fill="#473C41"/>
<path d="M25.869 13.8501C26.6585 13.8501 27.448 13.5498 28.049 12.9488L30.3548 10.643C31.5569 9.44088 31.5569 7.48501 30.3548 6.28292C29.1527 5.08082 27.1968 5.08082 25.9948 6.28292L23.689 8.58871C23.1066 9.17111 22.786 9.94513 22.786 10.7687C22.786 11.592 23.1066 12.3664 23.689 12.9488C24.29 13.5498 25.0795 13.8501 25.869 13.8501ZM24.7661 9.66583L27.0719 7.36004C27.6801 6.75185 28.6695 6.75185 29.2773 7.36004C29.8855 7.96822 29.8855 8.95767 29.2773 9.56546L26.9715 11.8713C26.3637 12.4794 25.3743 12.4794 24.7661 11.8713C24.4717 11.5769 24.3094 11.1853 24.3094 10.7687C24.3094 10.3522 24.4717 9.9602 24.7661 9.66583Z" fill="#473C41"/>
<path d="M46.8391 25.3451H39.5067L45.1562 19.6956C46.515 18.3368 46.515 16.1259 45.1562 14.7671L31.3079 0.919222C30.6498 0.261048 29.7746 -0.101562 28.8438 -0.101562C27.9131 -0.101562 27.0379 0.261048 26.3794 0.919222L23.6657 3.63285C23.3686 3.9304 23.3686 4.41242 23.6657 4.70997C23.9633 5.00752 24.4457 5.00752 24.7429 4.70997L27.4569 1.99634C27.827 1.6258 28.3198 1.42188 28.8438 1.42188C29.3675 1.42188 29.8603 1.6258 30.2308 1.99634L44.0786 15.8442C44.8435 16.6091 44.8435 17.8532 44.0786 18.6181L37.3521 25.3447H18.1024L23.6392 19.8079C23.9367 19.5107 23.9367 19.0283 23.6392 18.7308C23.3416 18.4332 22.8592 18.4332 22.562 18.7308L15.9482 25.3451H13.5595C11.6377 25.3451 10.0746 26.9082 10.0746 28.8295V48.4137C10.0746 50.335 11.6377 51.8985 13.5595 51.8985H46.8391C48.7608 51.8985 50.324 50.335 50.324 48.4137V45.5985C50.324 45.1776 49.9832 44.8368 49.5622 44.8368C49.1417 44.8368 48.8005 45.1776 48.8005 45.5985V48.4137C48.8005 49.4952 47.921 50.3751 46.8391 50.3751H13.5595C12.478 50.3751 11.598 49.4952 11.598 48.4137V37.7254H48.8005V42.5516C48.8005 42.9721 49.1413 43.3133 49.5622 43.3133C49.9832 43.3133 50.324 42.9721 50.324 42.5516V28.8299C50.324 26.9082 48.7608 25.3451 46.8391 25.3451ZM13.5595 26.8685H46.8391C47.9206 26.8685 48.8005 27.7484 48.8005 28.8299V31.4975H11.598V28.8299C11.598 27.7484 12.478 26.8685 13.5595 26.8685ZM11.598 36.2019V33.021H48.8005V36.2019H11.598Z" fill="#473C41"/>
<path d="M40.4504 43.3132C39.8065 43.3132 39.2825 43.8373 39.2825 44.4812V47.3829C39.2825 48.0272 39.8065 48.5509 40.4504 48.5509H45.066C45.7099 48.5509 46.234 48.0272 46.234 47.3829V44.4812C46.234 43.8373 45.7099 43.3132 45.066 43.3132H40.4504ZM44.7105 47.0274H40.8059V44.8367H44.7105V47.0274Z" fill="#473C41"/>
<path d="M26.5344 43.3132C25.8905 43.3132 25.3665 43.8373 25.3665 44.4812V47.3829C25.3665 48.0272 25.8905 48.5509 26.5344 48.5509H36.2967C36.9406 48.5509 37.4647 48.0272 37.4647 47.3829V44.4812C37.4647 43.8373 36.9406 43.3132 36.2967 43.3132H26.5344ZM35.9413 47.0274H26.8899V44.8367H35.9413V47.0274Z" fill="#FF1284"/>
<path d="M17.2849 47.0276C16.8644 47.0276 16.5232 47.3688 16.5232 47.7893C16.5232 48.2102 16.8644 48.551 17.2849 48.551H22.1488C22.5693 48.551 22.9105 48.2102 22.9105 47.7893C22.9105 47.3688 22.5693 47.0276 22.1488 47.0276H17.2849Z" fill="#473C41"/>
</g>
<defs>
<clipPath id="clip0">
<rect width="52" height="52" fill="white"/>
</clipPath>
</defs>
</svg>
