<svg width="52" height="52" viewBox="0 0 52 52" fill="none" xmlns="http://www.w3.org/2000/svg">
<rect x="1" y="6" width="50" height="10" rx="2" fill="#FFDFEE"/>
<rect x="9" y="1" width="7" height="10" fill="white"/>
<rect x="36" y="1" width="7" height="10" fill="white"/>
<circle cx="26" cy="38" r="13" fill="white"/>
<path d="M23.0306 45.3009C23.1272 45.3414 23.2275 45.3606 23.326 45.3606C23.6245 45.3606 23.9081 45.1844 24.0309 44.8919L29.5565 31.7255C29.7198 31.3364 29.5367 30.8886 29.1476 30.7253C28.7587 30.562 28.3106 30.7449 28.1473 31.1341L22.6217 44.3005C22.4585 44.6897 22.6416 45.1375 23.0306 45.3009Z" fill="#FF1284"/>
<path d="M22.2686 37.2546C24.0362 37.2546 25.4743 35.6391 25.4743 33.6533C25.4743 31.6676 24.0362 30.052 22.2686 30.052C20.501 30.052 19.063 31.6675 19.063 33.6533C19.063 35.6392 20.501 37.2546 22.2686 37.2546ZM22.2686 31.5802C23.1936 31.5802 23.9461 32.5102 23.9461 33.6533C23.9461 34.7965 23.1936 35.7264 22.2686 35.7264C21.3437 35.7264 20.5912 34.7964 20.5912 33.6533C20.5912 32.5103 21.3437 31.5802 22.2686 31.5802Z" fill="#FF1284"/>
<path d="M26.5256 42.6554C26.5256 44.6412 27.9637 46.2568 29.7313 46.2568C31.4989 46.2568 32.9369 44.6413 32.9369 42.6554C32.9369 40.6696 31.4989 39.0542 29.7313 39.0542C27.9637 39.0542 26.5256 40.6696 26.5256 42.6554ZM29.7313 40.5823C30.6562 40.5823 31.4087 41.5122 31.4087 42.6553C31.4087 43.7984 30.6562 44.7285 29.7313 44.7285C28.8063 44.7285 28.0538 43.7985 28.0538 42.6553C28.0538 41.5121 28.8063 40.5823 29.7313 40.5823Z" fill="#FF1284"/>
<path d="M49.3324 5.63465H44.2894V2.59793C44.2894 1.1654 43.1241 0 41.6915 0H37.7637C36.3311 0 35.1657 1.1654 35.1657 2.59793V5.63465H23.181C22.759 5.63465 22.4169 5.97676 22.4169 6.39874C22.4169 6.82073 22.759 7.16284 23.181 7.16284H35.1658V9.75119C35.1658 11.1837 36.3312 12.3491 37.7638 12.3491H41.6916C43.1242 12.3491 44.2896 11.1837 44.2896 9.75119V7.16284H49.3325C49.9224 7.16284 50.4022 7.64269 50.4022 8.23257V15.1554H1.59777V8.23257C1.59777 7.64269 2.07762 7.16284 2.66751 7.16284H7.71034V9.75119C7.71034 11.1837 8.87574 12.3491 10.3083 12.3491H14.2361C15.6687 12.3491 16.8341 11.1837 16.8341 9.75119V7.16284H19.6153C20.0373 7.16284 20.3794 6.82073 20.3794 6.39874C20.3794 5.97676 20.0373 5.63465 19.6153 5.63465H16.8341V2.59793C16.8341 1.1654 15.6687 0 14.2361 0H10.3083C8.87574 0 7.71034 1.1654 7.71034 2.59793V5.63465H2.66751C1.23498 5.63465 0.0695801 6.80005 0.0695801 8.23257V42.7239C0.0695801 44.1564 1.23498 45.3218 2.66751 45.3218H13.8021C13.8966 45.7819 14.0569 46.2286 14.3444 46.6237C14.9536 47.4607 15.9477 47.8315 16.8249 48.1586C17.3677 48.3612 17.8804 48.5524 18.2501 48.8214C18.612 49.0847 18.9473 49.509 19.3025 49.9582C19.8868 50.6975 20.5491 51.5353 21.5472 51.8594C21.8556 51.9596 22.1648 51.9998 22.4734 51.9998C23.1239 51.9998 23.7719 51.8208 24.4054 51.6458C24.9776 51.4877 25.5181 51.3385 25.9999 51.3385C26.4818 51.3385 27.0223 51.4877 27.5945 51.6458C28.5284 51.9037 29.4942 52.1706 30.4528 51.8593C31.4508 51.5352 32.1131 50.6975 32.6974 49.9582C33.0524 49.5089 33.3879 49.0846 33.7498 48.8213C34.1195 48.5522 34.6322 48.361 35.175 48.1585C36.0521 47.8314 37.0463 47.4605 37.6555 46.6236C37.943 46.2285 38.1033 45.7818 38.1978 45.3217H42.5573C42.9794 45.3217 43.3214 44.9796 43.3214 44.5576C43.3214 44.1356 42.9794 43.7935 42.5573 43.7935H38.348C38.3739 43.2153 38.3992 42.6696 38.5422 42.2295C38.6764 41.816 38.9717 41.3733 39.2844 40.9045C39.8104 40.116 40.4066 39.2222 40.4066 38.1543C40.4066 37.0864 39.8104 36.1926 39.2844 35.404C38.9717 34.9352 38.6764 34.4924 38.5421 34.079C38.3981 33.6353 38.3735 33.0842 38.3474 32.5009C38.3059 31.5695 38.2587 30.5138 37.6555 29.6849C37.0463 28.848 36.0522 28.4771 35.1749 28.1499C34.6322 27.9475 34.1195 27.7562 33.7498 27.4872C33.3879 27.2238 33.0525 26.7995 32.6974 26.3503C32.1131 25.6111 31.4508 24.7732 30.4527 24.4491C29.4943 24.138 28.5284 24.4047 27.5944 24.6627C27.0222 24.8207 26.4817 24.9699 25.9999 24.9699C25.5181 24.9699 24.9776 24.8207 24.4054 24.6627C23.4715 24.4047 22.5057 24.1378 21.5471 24.4491C20.549 24.7732 19.8868 25.6111 19.3024 26.3503C18.9473 26.7995 18.612 27.2238 18.2501 27.4872C17.8804 27.7562 17.3677 27.9475 16.825 28.1499C15.9478 28.4771 14.9536 28.848 14.3444 29.6848C13.7412 30.5138 13.694 31.5696 13.6524 32.501C13.6264 33.0843 13.6017 33.6353 13.4577 34.079C13.3235 34.4923 13.0281 34.9351 12.7155 35.4038C12.1895 36.1924 11.5932 37.0862 11.5932 38.1542C11.5932 39.2222 12.1895 40.116 12.7155 40.9046C13.0281 41.3734 13.3235 41.8161 13.4577 42.2295C13.6007 42.6695 13.626 43.2152 13.6518 43.7934H2.66751C2.07762 43.7934 1.59777 43.3136 1.59777 42.7237V16.6833H50.4021V42.7237C50.4021 43.3136 49.9223 43.7934 49.3324 43.7934H46.1232C45.7011 43.7934 45.3591 44.1355 45.3591 44.5575C45.3591 44.9795 45.7011 45.3216 46.1232 45.3216H49.3324C50.7649 45.3216 51.9303 44.1562 51.9303 42.7237V8.23257C51.9303 6.80015 50.7649 5.63465 49.3324 5.63465ZM42.7613 9.75119C42.7613 10.3411 42.2814 10.8209 41.6915 10.8209H37.7637C37.1738 10.8209 36.6939 10.3411 36.6939 9.75119V2.59793C36.6939 2.00804 37.1738 1.52819 37.7637 1.52819H41.6915C42.2814 1.52819 42.7613 2.00804 42.7613 2.59793V9.75119ZM9.23853 2.59793C9.23853 2.00804 9.71838 1.52819 10.3083 1.52819H14.2361C14.826 1.52819 15.3059 2.00804 15.3059 2.59793V9.75119C15.3059 10.3411 14.826 10.8209 14.2361 10.8209H10.3083C9.71838 10.8209 9.23853 10.3411 9.23853 9.75119V2.59793ZM13.1215 38.1544C13.1215 37.5493 13.5418 36.9192 13.9868 36.2521C14.3433 35.7176 14.7119 35.1651 14.9113 34.5511C15.1192 33.9105 15.1497 33.2288 15.1791 32.5693C15.2143 31.7836 15.2474 31.0415 15.5802 30.5842C15.9186 30.1191 16.6183 29.8582 17.3591 29.5818C17.9744 29.3523 18.6105 29.115 19.1494 28.7229C19.6809 28.3361 20.0981 27.8084 20.5014 27.2981C20.995 26.6738 21.4612 26.084 22.0192 25.9028C22.5409 25.7333 23.2491 25.9288 23.9987 26.1359C24.6439 26.314 25.311 26.4983 26.0001 26.4983C26.6892 26.4983 27.3564 26.314 28.0015 26.1359C28.7511 25.9288 29.4592 25.7331 29.981 25.9028C30.5392 26.084 31.0054 26.6737 31.4989 27.2981C31.9022 27.8084 32.3194 28.3361 32.8509 28.7229C33.3898 29.115 34.0259 29.3523 34.6412 29.5818C35.3819 29.8581 36.0817 30.1191 36.4202 30.5842C36.7529 31.0414 36.786 31.7834 36.8211 32.569C36.8505 33.2284 36.881 33.9103 37.089 34.5509C37.2884 35.1649 37.657 35.7176 38.0135 36.252C38.4585 36.9191 38.8787 37.5492 38.8787 38.1542C38.8787 38.7591 38.4585 39.3894 38.0135 40.0564C37.657 40.5908 37.2884 41.1434 37.0891 41.7573C36.881 42.398 36.8505 43.0798 36.8211 43.7393C36.786 44.525 36.7529 45.2671 36.4201 45.7242C36.0817 46.1892 35.382 46.4502 34.6412 46.7266C34.0259 46.956 33.3898 47.1934 32.8509 47.5856C32.3194 47.9723 31.9022 48.5 31.4989 49.0104C31.0053 49.6348 30.5392 50.2245 29.9812 50.4057C29.4596 50.5752 28.7512 50.3796 28.0017 50.1726C27.3565 49.9944 26.6894 49.8101 26.0002 49.8101C25.3111 49.8101 24.644 49.9944 23.9988 50.1726C23.2492 50.3796 22.5409 50.5751 22.0194 50.4057C21.4612 50.2244 20.995 49.6348 20.5016 49.0103C20.0982 48.5 19.681 47.9723 19.1496 47.5856C18.6107 47.1934 17.9746 46.956 17.3593 46.7266C16.6186 46.4503 15.9188 46.1893 15.5803 45.7242C15.2476 45.2671 15.2145 44.525 15.1794 43.7394C15.15 43.0799 15.1195 42.3981 14.9115 41.7574C14.7121 41.1435 14.3435 40.5909 13.987 40.0566C13.5418 39.3897 13.1215 38.7595 13.1215 38.1544Z" fill="#473C41"/>
</svg>
