<svg width="24" height="24" viewBox="0 0 24 24" fill="none" xmlns="http://www.w3.org/2000/svg">
<path d="M0.5 23.5V14.5C0.5 14.2348 0.605357 13.9804 0.792893 13.7929C0.98043 13.6054 1.23478 13.5 1.5 13.5H22.5C22.7652 13.5 23.0196 13.6054 23.2071 13.7929C23.3946 13.9804 23.5 14.2348 23.5 14.5V23.5" stroke="#1A202C" stroke-linecap="round" stroke-linejoin="round"/>
<path d="M10 11.5V10.5C10 9.96957 9.78929 9.46086 9.41421 9.08579C9.03914 8.71071 8.53043 8.5 8 8.5H4C3.46957 8.5 2.96086 8.71071 2.58579 9.08579C2.21071 9.46086 2 9.96957 2 10.5V11.5" stroke="#1A202C" stroke-linecap="round" stroke-linejoin="round"/>
<path d="M13 1.5C13 1.23478 13.1054 0.98043 13.2929 0.792893C13.4804 0.605357 13.7348 0.5 14 0.5C14.2652 0.5 14.5196 0.605357 14.7071 0.792893C14.8946 0.98043 15 1.23478 15 1.5C15.0002 1.82351 14.8901 2.13742 14.688 2.39L13 4.5H15" stroke="#1A202C" stroke-linecap="round" stroke-linejoin="round"/>
<path d="M18.5 3H16.5V2.5C16.5 1.96957 16.7107 1.46086 17.0858 1.08579C17.4609 0.710714 17.9696 0.5 18.5 0.5V4.5" stroke="#1A202C" stroke-linecap="round" stroke-linejoin="round"/>
<path d="M20.5 0.5V4.5" stroke="#1A202C" stroke-linecap="round" stroke-linejoin="round"/>
<path d="M20.5 2.5H22C22.2652 2.5 22.5196 2.60536 22.7071 2.79289C22.8946 2.98043 23 3.23478 23 3.5V4.5" stroke="#1A202C" stroke-linecap="round" stroke-linejoin="round"/>
<path d="M18.5 13.5V11.5" stroke="#1A202C" stroke-linecap="round" stroke-linejoin="round"/>
<path d="M21 9.5H16C15.7239 9.5 15.5 9.72386 15.5 10V11C15.5 11.2761 15.7239 11.5 16 11.5H21C21.2761 11.5 21.5 11.2761 21.5 11V10C21.5 9.72386 21.2761 9.5 21 9.5Z" stroke="#1A202C" stroke-linecap="round" stroke-linejoin="round"/>
<path d="M13.5 16C13.2348 16 12.9804 16.1054 12.7929 16.2929C12.6054 16.4804 12.5 16.7348 12.5 17V18.5H10.5V17C10.5 16.7348 10.3946 16.4804 10.2071 16.2929C10.0196 16.1054 9.76522 16 9.5 16C9.23478 16 8.98043 16.1054 8.79289 16.2929C8.60536 16.4804 8.5 16.7348 8.5 17V21.5C8.5 21.7652 8.60536 22.0196 8.79289 22.2071C8.98043 22.3946 9.23478 22.5 9.5 22.5C9.76522 22.5 10.0196 22.3946 10.2071 22.2071C10.3946 22.0196 10.5 21.7652 10.5 21.5V20.5H12.5V21.5C12.5 21.7652 12.6054 22.0196 12.7929 22.2071C12.9804 22.3946 13.2348 22.5 13.5 22.5C13.7652 22.5 14.0196 22.3946 14.2071 22.2071C14.3946 22.0196 14.5 21.7652 14.5 21.5V17C14.5 16.7348 14.3946 16.4804 14.2071 16.2929C14.0196 16.1054 13.7652 16 13.5 16Z" stroke="#1A202C" stroke-linecap="round" stroke-linejoin="round"/>
<path d="M3.5 3.5V4C3.5 4.66304 3.76339 5.29893 4.23223 5.76777C4.70107 6.23661 5.33696 6.5 6 6.5C6.66304 6.5 7.29893 6.23661 7.76777 5.76777C8.23661 5.29893 8.5 4.66304 8.5 4V3.5" stroke="#1A202C" stroke-linecap="round" stroke-linejoin="round"/>
<path d="M8.5 3.50001H3.5V1.35501C3.49966 1.25025 3.53165 1.14794 3.5916 1.06204C3.65156 0.976132 3.73656 0.910819 3.835 0.875008C5.23503 0.374997 6.76497 0.374997 8.165 0.875008C8.26345 0.910819 8.34845 0.976132 8.4084 1.06204C8.46836 1.14794 8.50035 1.25025 8.5 1.35501V3.50001Z" stroke="#1A202C" stroke-linecap="round" stroke-linejoin="round"/>
</svg>
